{
.appVersion = "3148";
.formatVersion = 3;
axes = (
{
name = Weight;
tag = wght;
}
);
customParameters = (
{
name = panose;
value = (
0,
0,
0,
0,
0,
0,
0,
0,
0,
0
);
},
{
name = unicodeRanges;
value = (
0,
1,
2,
3,
6,
29,
31,
48
);
},
{
name = codePageRanges;
value = (
"1252"
);
},
{
name = glyphOrder;
value = (
.notdef,
space,
A,
Aacute,
Acircumflex,
Adieresis,
Agrave,
Aring,
Atilde,
AE,
B,
C,
Ccedilla,
D,
Eth,
E,
Eacute,
Ecircumflex,
Edieresis,
Egrave,
F,
G,
H,
I,
IJ,
Iacute,
Icircumflex,
Idieresis,
Igrave,
J,
uni004A0301,
K,
L,
M,
N,
Ntilde,
O,
Oacute,
Ocircumflex,
Odieresis,
Ograve,
Oslash,
Otilde,
OE,
P,
Thorn,
Q,
R,
S,
uni1E9E,
T,
U,
Uacute,
Ucircumflex,
Udieresis,
Ugrave,
V,
W,
Wacute,
Wcircumflex,
Wdieresis,
Wgrave,
X,
Y,
Yacute,
Ycircumflex,
Ydieresis,
Ygrave,
Z,
a,
aacute,
acircumflex,
adieresis,
agrave,
aring,
atilde,
ae,
b,
c,
ccedilla,
d,
eth,
e,
eacute,
ecircumflex,
edieresis,
egrave,
f,
g,
h,
i,
iacute,
icircumflex,
idieresis,
igrave,
ij,
j,
uni0237,
uni006A0301,
k,
l,
m,
n,
ntilde,
o,
oacute,
ocircumflex,
odieresis,
ograve,
oslash,
otilde,
oe,
p,
thorn,
q,
r,
s,
germandbls,
t,
u,
uacute,
ucircumflex,
udieresis,
ugrave,
v,
w,
wacute,
wcircumflex,
wdieresis,
wgrave,
x,
y,
yacute,
ycircumflex,
ydieresis,
ygrave,
z,
zero,
one,
two,
three,
four,
five,
six,
seven,
eight,
nine,
uni3000,
uni205F,
uni200E,
uni200F,
uni200D,
uni200C,
uni2001,
uni2003,
uni2000,
uni2002,
uni2007,
uni2005,
uni200A,
uni202F,
uni2008,
uni2006,
uni00A0,
uni2009,
uni2004,
uni200B,
period,
comma,
colon,
semicolon,
hyphen,
endash,
emdash,
underscore,
uni0308,
uni0307,
gravecomb,
acutecomb,
uni0302,
uni030A,
tildecomb,
uni0327
);
}
);
date = "2022-09-15 19:02:08 +0000";
familyName = AlignXItalic;
fontMaster = (
{
axesValues = (
0
);
customParameters = (
{
name = typoAscender;
value = 800;
},
{
name = typoDescender;
value = -200;
},
{
name = typoLineGap;
value = 200;
},
{
name = winAscent;
value = 1000;
},
{
name = winDescent;
value = 200;
},
{
name = hheaAscender;
value = 1000;
},
{

glyphs = (
{
glyphname = A;
lastChange = "2023-01-01 20:29:52 +0000";
layers = (
{
layerId = "F37970A2-6E00-4E94-80D5-69451598B5C0";
shapes = (
{
closed = 1;
nodes = (
(101,0,l),
(193,177,l),
(466,177,l),
(490,0,l),
(566,0,l),
(465,700,l),
(401,700,l),
(31,0,l)
);
},
{
closed = 1;
nodes = (
(415,600,l),
(458,234,l),
(223,234,l)
);
}
);
userData = {
assembly = "NPUSHB[ ]	/* 40 values pushed */
9 1 4 0 1 76 5 1 4 0 2 1 4 2 104 0 0 0 14 77 3 1 1 1 15 1 78 8 8 8 10 8 10 17 17 17 16 6 7 26 
CALL[ ]	/* CallFunction */";
};
width = 597;
}
);
note = A;
unicode = 65;
},
{
glyphname = Adieresis;
lastChange = "2023-01-01 20:29:52 +0000";
layers = (
{
layerId = "F37970A2-6E00-4E94-80D5-69451598B5C0";
shapes = (
{
closed = 1;
nodes = (
(364,760,o),
(388,781,o),
(393,810,cs),
(398,835,o),
(383,862,o),
(358,862,cs),
(331,862,o),
(306,841,o),
(300,810,cs),
(295,781,o),
(311,760,o),
(338,760,cs)
);
},
{
closed = 1;
nodes = (
(513,781,o),
(530,760,o),
(557,760,cs),
(582,760,o),
(607,781,o),
(612,810,cs),
(618,841,o),
(601,862,o),
(577,862,cs),
(550,862,o),
(524,836,o),
(518,810,cs)
);
},
{
closed = 1;
nodes = (
(98,0,l),
(189,177,l),
(470,177,l),
(494,0,l),
(566,0,l),
(465,700,l),
(401,700,l),
(31,0,l)
);
},
{
closed = 1;
nodes = (
(416,609,l),
(461,234,l),
(220,234,l)
);
}
);
width = 597;
}
);
note = Adieresis;
unicode = 196;
},
{
glyphname = B;
lastChange = "2023-01-01 20:29:52 +0000";
layers = (
{
layerId = "F37970A2-6E00-4E94-80D5-69451598B5C0";
shapes = (
{
closed = 1;
nodes = (
(264,0,ls),
(409,0,o),
(522,75,o),
(544,190,cs),
(558,264,o),
(518,332,o),
(442,362,c),
(513,391,o),
(566,455,o),
(579,522,cs),
(601,631,o),
(531,700,o),
(400,700,cs),
(226,700,l),
(90,0,l)
);
},
{
closed = 1;
nodes = (
(225,334,l),
(329,334,ls),
(431,334,o),
(489,277,o),
(472,190,cs),
(456,107,o),
(376,53,o),
(274,53,cs),
(170,53,l)
);
},
{
closed = 1;
nodes = (
(286,647,l),
(389,647,ls),
(476,647,o),
(522,599,o),
(507,522,cs),
(492,440,o),
(425,387,o),
(339,387,cs),
(235,387,l)
);
}
);
userData = {
assembly = "NPUSHB[ ]	/* 58 values pushed */
7 1 3 4 1 76 7 1 4 0 3 2 4 3 103 0 5 5 0 95 0 0 0 14 77 6 1 2 2 1 95 0 1 1 15 1 78 25 24 16 15 29 27 24 30 25 30 22 20 15 23 16 23 42 32 8 7 24 
CALL[ ]	/* CallFunction */";
};
width = 555;
}
);
note = B;
unicode = 66;
},
{
glyphname = C;
lastChange = "2023-01-01 20:29:52 +0000";
layers = (
{
layerId = "F37970A2-6E00-4E94-80D5-69451598B5C0";
shapes = (
{
closed = 1;
nodes = (
(445,-9,o),
(552,65,o),
(572,163,c),
(502,163,l),
(486,93,o),
(416,45,o),
(331,45,cs),
(214,45,o),
(161,173,o),
(199,369,cs),
(233,541,o),
(333,654,o),
(450,654,cs),
(537,654,o),
(583,601,o),
(571,519,c),
(640,519,l),
(659,630,o),
(587,709,o),
(461,709,cs),
(301,709,o),
(168,574,o),
(128,369,cs),
(84,141,o),
(161,-9,o),
(321,-9,cs)
);
}
);
userData = {
assembly = "NPUSHB[ ]	/* 51 values pushed */
0 1 2 4 2 1 4 128 0 4 3 2 4 3 126 0 2 2 0 97 0 0 0 20 77 0 3 3 5 97 6 1 5 5 21 5 78 0 0 0 25 0 24 18 36 34 18 36 7 7 27 
CALL[ ]	/* CallFunction */";
};
width = 581;
}
);
note = C;
unicode = 67;
},
{
glyphname = D;
lastChange = "2023-01-01 20:29:52 +0000";
layers = (
{
layerId = "F37970A2-6E00-4E94-80D5-69451598B5C0";
shapes = (
{
closed = 1;
nodes = (
(456,-2,o),
(609,147,o),
(652,370,cs),
(691,569,o),
(593,702,o),
(419,702,cs),
(371,700,o),
(285,700,o),
(219,700,c),
(83,0,l),
(162,0,o),
(248,0,o),
(282,-2,cs)
);
},
{
closed = 1;
nodes = (
(280,649,l),
(409,650,ls),
(539,651,o),
(613,538,o),
(580,370,cs),
(543,176,o),
(424,49,o),
(295,51,cs),
(163,52,l)
);
}
);
userData = {
assembly = "NPUSHB[ ]	/* 42 values pushed */
0 3 3 1 95 0 1 1 14 77 5 1 2 2 0 95 4 1 0 0 15 0 78 12 11 1 0 18 16 11 19 12 19 5 2 0 10 1 9 6 7 22 
CALL[ ]	/* CallFunction */";
};
width = 635;
}
);
note = D;
unicode = 68;
},
{
glyphname = E;
lastChange = "2023-01-01 20:29:52 +0000";
layers = (
{
layerId = "F37970A2-6E00-4E94-80D5-69451598B5C0";
shapes = (
{
closed = 1;
nodes = (
(456,0,l),
(467,56,l),
(166,56,l),
(221,338,l),
(471,338,l),
(482,395,l),
(232,395,l),
(280,644,l),
(581,644,l),
(592,700,l),
(219,700,l),
(83,0,l)
);
}
);
userData = {
assembly = "NPUSHB[ ]	/* 38 values pushed */
0 2 0 3 4 2 3 103 0 1 1 0 95 0 0 0 14 77 0 4 4 5 95 0 5 5 15 5 78 17 17 17 17 17 16 6 7 28 
CALL[ ]	/* CallFunction */";
};
width = 501;
}
);
note = E;
unicode = 69;
},
{
glyphname = F;
lastChange = "2023-01-01 20:29:52 +0000";
layers = (
{
layerId = "F37970A2-6E00-4E94-80D5-69451598B5C0";
shapes = (
{
closed = 1;
nodes = (
(153,0,l),
(217,331,l),
(469,331,l),
(480,388,l),
(228,388,l),
(278,644,l),
(581,644,l),
(592,700,l),
(219,700,l),
(83,0,l)
);
}
);
userData = {
assembly = "NPUSHB[ ]	/* 32 values pushed */
0 2 0 3 4 2 3 103 0 1 1 0 95 0 0 0 14 77 0 4 4 15 4 78 17 17 17 17 16 5 7 27 
CALL[ ]	/* CallFunction */";
};
width = 470;
}
);
note = F;
unicode = 70;
},
{
glyphname = G;
lastChange = "2023-01-01 20:29:52 +0000";
layers = (
{
layerId = "F37970A2-6E00-4E94-80D5-69451598B5C0";
shapes = (
{
closed = 1;
nodes = (
(404,-10,o),
(492,44,o),
(536,120,c),
(516,100,l),
(517,0,l),
(564,0,l),
(634,361,l),
(392,361,l),
(382,307,l),
(567,307,l),
(542,152,o),
(446,43,o),
(334,43,cs),
(219,43,o),
(165,179,o),
(202,372,cs),
(235,540,o),
(339,658,o),
(454,658,cs),
(547,658,o),
(603,605,o),
(588,531,c),
(657,532,l),
(678,636,o),
(598,710,o),
(464,710,cs),
(307,710,o),
(168,570,o),
(129,372,cs),
(86,148,o),
(167,-10,o),
(324,-10,cs)
);
}
);
userData = {
assembly = "NPUSHB[ ]	/* 53 values pushed */
0 1 2 5 2 1 5 128 0 5 0 4 3 5 4 103 0 2 2 0 97 0 0 0 20 77 0 3 3 6 97 7 1 6 6 21 6 78 0 0 0 27 0 26 17 17 36 34 18 36 8 7 28 
CALL[ ]	/* CallFunction */";
};
width = 642;
}
);
note = G;
unicode = 71;
},
{
glyphname = H;
lastChange = "2023-01-01 20:29:52 +0000";
layers = (
{
layerId = "F37970A2-6E00-4E94-80D5-69451598B5C0";
shapes = (
{
closed = 1;
nodes = (
(154,0,l),
(220,340,l),
(536,340,l),
(470,0,l),
(541,0,l),
(677,700,l),
(606,700,l),
(547,396,l),
(231,396,l),
(290,700,l),
(219,700,l),
(83,0,l)
);
}
);
userData = {
assembly = "NPUSHB[ ]	/* 30 values pushed */
0 1 0 4 3 1 4 103 2 1 0 0 14 77 5 1 3 3 15 3 78 17 17 17 17 17 16 6 7 28 
CALL[ ]	/* CallFunction */";
};
width = 624;
}
);
note = H;
unicode = 72;
},
{
glyphname = I;
lastChange = "2023-01-01 20:29:52 +0000";
layers = (
{
layerId = "F37970A2-6E00-4E94-80D5-69451598B5C0";
shapes = (
{
closed = 1;
nodes = (
(162,0,l),
(298,700,l),
(226,700,l),
(90,0,l)
);
}
);
userData = {
assembly = "NPUSHB[ ]	/* 16 values pushed */
0 0 0 14 77 0 1 1 15 1 78 17 16 2 7 24 
CALL[ ]	/* CallFunction */";
};
width = 252;
}
);
note = I;
unicode = 73;
},
{
glyphname = J;
lastChange = "2023-01-01 20:38:31 +0000";
layers = (
{
layerId = "F37970A2-6E00-4E94-80D5-69451598B5C0";
shapes = (
{
closed = 1;
nodes = (
(99,1,ls),
(82,-89,o),
(30,-145,o),
(-36,-146,cs),
(-38,-146,o),
(-42,-145,o),
(-47,-145,c),
(-57,-199,l),
(-56,-201,o),
(-51,-202,o),
(-46,-202,cs),
(56,-201,o),
(149,-116,o),
(171,1,cs),
(307,700,l),
(235,700,l)
);
}
);
userData = {
assembly = "NPUSHB[ ]	/* 36 values pushed */
11 1 2 0 1 76 0 1 1 14 77 3 1 0 0 2 97 0 2 2 25 2 78 1 0 10 8 5 4 0 12 1 12 4 7 22 
CALL[ ]	/* CallFunction */";
};
width = 258;
}
);
note = J;
unicode = 74;
},
{
glyphname = K;
lastChange = "2023-01-01 20:29:52 +0000";
layers = (
{
layerId = "F37970A2-6E00-4E94-80D5-69451598B5C0";
shapes = (
{
closed = 1;
nodes = (
(571,1,l),
(363,364,l),
(671,700,l),
(588,700,l),
(227,301,l),
(304,700,l),
(233,700,l),
(97,0,l),
(168,0,l),
(208,205,l),
(310,314,l),
(481,-1,l)
);
}
);
userData = {
assembly = "NPUSHB[ ]	/* 28 values pushed */
9 6 1 3 0 1 1 76 2 1 1 1 14 77 3 1 0 0 15 0 78 18 18 17 18 4 7 26 
CALL[ ]	/* CallFunction */";
};
width = 584;
}
);
note = K;
unicode = 75;
},
{
glyphname = L;
lastChange = "2023-01-01 20:29:52 +0000";
layers = (
{
layerId = "F37970A2-6E00-4E94-80D5-69451598B5C0";
shapes = (
{
closed = 1;
nodes = (
(453,0,l),
(464,56,l),
(166,56,l),
(291,700,l),
(219,700,l),
(83,0,l)
);
}
);
userData = {
assembly = "NPUSHB[ ]	/* 22 values pushed */
0 0 0 14 77 0 1 1 2 96 0 2 2 15 2 78 17 17 16 3 7 25 
CALL[ ]	/* CallFunction */";
};
width = 480;
}
);
note = L;
unicode = 76;
},
{
glyphname = M;
lastChange = "2023-01-01 20:29:52 +0000";
layers = (
{
layerId = "F37970A2-6E00-4E94-80D5-69451598B5C0";
shapes = (
{
closed = 1;
nodes = (
(132,0,l),
(283,582,l),
(365,0,l),
(428,0,l),
(742,597,l),
(660,0,l),
(728,0,l),
(826,700,l),
(735,700,l),
(415,98,l),
(337,700,l),
(246,700,l),
(72,0,l)
);
}
);
userData = {
assembly = "NPUSHB[ ]	/* 30 values pushed */
10 7 2 3 2 0 1 76 1 1 0 0 14 77 4 3 2 2 2 15 2 78 18 18 17 18 16 5 7 27 
CALL[ ]	/* CallFunction */";
};
width = 791;
}
);
note = M;
unicode = 77;
},
{
glyphname = N;
lastChange = "2023-01-01 20:29:52 +0000";
layers = (
{
layerId = "F37970A2-6E00-4E94-80D5-69451598B5C0";
shapes = (
{
closed = 1;
nodes = (
(146,0,l),
(263,603,l),
(475,0,l),
(541,0,l),
(677,700,l),
(610,700,l),
(504,129,l),
(304,700,l),
(219,700,l),
(83,0,l)
);
}
);
userData = {
assembly = "NPUSHB[ ]	/* 27 values pushed */
5 0 2 0 1 1 76 2 1 1 1 14 77 3 1 0 0 15 0 78 17 18 17 17 4 7 26 
CALL[ ]	/* CallFunction */";
};
width = 624;
}
);
note = N;
unicode = 78;
},
{
glyphname = O;
lastChange = "2023-01-01 20:29:52 +0000";
layers = (
{
layerId = "F37970A2-6E00-4E94-80D5-69451598B5C0";
shapes = (
{
closed = 1;
nodes = (
(506,-9,o),
(637,130,o),
(683,367,cs),
(725,582,o),
(646,709,o),
(467,709,cs),
(296,709,o),
(169,578,o),
(126,355,cs),
(81,125,o),
(156,-9,o),
(327,-9,cs)
);
},
{
closed = 1;
nodes = (
(237,552,o),
(330,656,o),
(455,656,cs),
(588,656,o),
(646,545,o),
(608,352,cs),
(570,156,o),
(470,43,o),
(339,43,cs),
(212,43,o),
(161,163,o),
(202,370,cs)
);
}
);
userData = {
assembly = "NPUSHB[ ]	/* 36 values pushed */
0 3 3 0 97 0 0 0 20 77 0 2 2 1 97 4 1 1 1 21 1 78 0 0 21 19 15 13 0 11 0 10 36 5 7 23 
CALL[ ]	/* CallFunction */";
};
width = 666;
}
);
note = O;
unicode = 79;
},
{
glyphname = Odieresis;
lastChange = "2023-01-01 20:29:52 +0000";
layers = (
{
layerId = "F37970A2-6E00-4E94-80D5-69451598B5C0";
shapes = (
{
closed = 1;
nodes = (
(506,-9,o),
(637,130,o),
(683,367,cs),
(725,582,o),
(646,709,o),
(467,709,cs),
(296,709,o),
(169,578,o),
(126,355,cs),
(81,125,o),
(155,-9,o),
(327,-9,cs)
);
},
{
closed = 1;
nodes = (
(237,552,o),
(330,656,o),
(454,656,cs),
(588,656,o),
(646,545,o),
(608,352,cs),
(570,156,o),
(470,43,o),
(338,43,cs),
(212,43,o),
(161,163,o),
(202,370,cs)
);
},
{
closed = 1;
nodes = (
(397,766,o),
(421,788,o),
(426,816,cs),
(431,841,o),
(415,867,o),
(389,867,cs),
(364,867,o),
(340,846,o),
(334,816,cs),
(329,788,o),
(345,766,o),
(370,766,cs)
);
},
{
closed = 1;
nodes = (
(546,788,o),
(563,766,o),
(590,766,cs),
(614,766,o),
(641,788,o),
(646,816,cs),
(652,846,o),
(632,867,o),
(609,867,cs),
(581,867,o),
(556,841,o),
(551,816,cs)
);
}
);
width = 665;
}
);
note = Odieresis;
unicode = 214;
},
{
glyphname = P;
lastChange = "2023-01-01 20:29:52 +0000";
layers = (
{
layerId = "F37970A2-6E00-4E94-80D5-69451598B5C0";
shapes = (
{
closed = 1;
nodes = (
(152,0,l),
(212,308,l),
(316,308,ls),
(457,308,o),
(565,390,o),
(588,510,cs),
(610,624,o),
(533,700,o),
(392,700,cs),
(218,700,l),
(82,0,l)
);
},
{
closed = 1;
nodes = (
(278,647,l),
(381,647,ls),
(483,647,o),
(533,594,o),
(517,510,cs),
(500,420,o),
(426,361,o),
(326,361,cs),
(222,361,l)
);
}
);
userData = {
assembly = "NPUSHB[ ]	/* 39 values pushed */
5 1 3 0 1 2 3 1 103 0 4 4 0 95 0 0 0 14 77 0 2 2 15 2 78 12 11 17 15 11 18 12 18 17 36 32 6 7 25 
CALL[ ]	/* CallFunction */";
};
width = 499;
}
);
note = P;
unicode = 80;
},
{
glyphname = Q;
lastChange = "2023-01-01 20:39:37 +0000";
layers = (
{
layerId = "F37970A2-6E00-4E94-80D5-69451598B5C0";
shapes = (
{
closed = 1;
nodes = (
(609,-147,l),
(572,-147,o),
(530,-118,o),
(499,-70,cs),
(469,-27,o),
(430,1,o),
(395,3,c),
(520,44,o),
(620,186,o),
(656,371,cs),
(696,578,o),
(631,710,o),
(469,710,cs),
(307,710,o),
(169,578,o),
(129,371,cs),
(87,155,o),
(149,-10,o),
(310,-10,cs),
(342,-10,o),
(382,-39,o),
(415,-85,cs),
(468,-155,o),
(533,-197,o),
(587,-198,cs),
(591,-198,o),
(596,-198,o),
(599,-196,c)
);
},
{
closed = 1;
nodes = (
(235,545,o),
(331,656,o),
(448,656,cs),
(565,656,o),
(616,545,o),
(583,371,cs),
(543,169,o),
(446,43,o),
(329,43,cs),
(212,43,o),
(162,169,o),
(202,371,cs)
);
}
);
userData = {
assembly = "NPUSHB[ ]	/* 50 values pushed */
22 1 1 4 29 1 0 3 2 76 0 5 5 2 97 0 2 2 14 77 0 4 4 1 97 0 1 1 24 77 0 3 3 0 97 0 0 0 19 0 78 36 35 26 37 53 32 6 7 28 
CALL[ ]	/* CallFunction */";
};
width = 636;
}
);
note = Q;
unicode = 81;
},
{
glyphname = R;
lastChange = "2023-01-01 20:29:52 +0000";
layers = (
{
layerId = "F37970A2-6E00-4E94-80D5-69451598B5C0";
shapes = (
{
closed = 1;
nodes = (
(155,0,l),
(214,302,l),
(306,302,ls),
(323,302,o),
(340,303,o),
(347,304,c),
(444,0,l),
(528,0,l),
(421,320,l),
(510,344,o),
(582,419,o),
(600,507,cs),
(622,622,o),
(542,700,o),
(400,700,cs),
(219,700,l),
(83,0,l)
);
},
{
closed = 1;
nodes = (
(281,647,l),
(389,647,ls),
(490,647,o),
(543,592,o),
(527,507,cs),
(508,414,o),
(433,355,o),
(333,355,cs),
(224,355,l)
);
}
);
userData = {
assembly = "NPUSHB[ ]	/* 47 values pushed */
7 1 2 4 1 76 6 1 4 0 2 1 4 2 103 0 5 5 0 95 0 0 0 14 77 3 1 1 1 15 1 78 17 16 22 20 16 23 17 23 17 34 22 32 7 7 26 
CALL[ ]	/* CallFunction */";
};
width = 556;
}
);
note = R;
unicode = 82;
},
{
glyphname = S;
lastChange = "2023-01-01 20:29:52 +0000";
layers = (
{
layerId = "F37970A2-6E00-4E94-80D5-69451598B5C0";
shapes = (
{
closed = 1;
nodes = (
(406,-9,o),
(511,69,o),
(533,180,cs),
(555,297,o),
(460,345,o),
(373,388,cs),
(299,424,o),
(232,458,o),
(246,529,cs),
(260,603,o),
(327,656,o),
(408,656,cs),
(486,656,o),
(530,599,o),
(514,520,c),
(581,520,l),
(603,630,o),
(537,709,o),
(419,709,cs),
(295,709,o),
(192,629,o),
(170,517,cs),
(151,416,o),
(237,372,o),
(321,330,cs),
(399,290,o),
(475,251,o),
(458,168,cs),
(444,95,o),
(373,44,o),
(289,44,cs),
(199,44,o),
(147,102,o),
(163,183,c),
(96,183,l),
(74,71,o),
(149,-9,o),
(279,-9,cs)
);
}
);
userData = {
assembly = "NPUSHB[ ]	/* 51 values pushed */
0 3 4 0 4 3 0 128 0 0 1 4 0 1 126 0 4 4 2 97 0 2 2 20 77 0 1 1 5 97 6 1 5 5 21 5 78 0 0 0 41 0 40 34 18 44 34 18 7 7 27 
CALL[ ]	/* CallFunction */";
};
width = 541;
}
);
note = S;
unicode = 83;
},
{
glyphname = T;
lastChange = "2023-01-01 20:29:52 +0000";
layers = (
{
layerId = "F37970A2-6E00-4E94-80D5-69451598B5C0";
shapes = (
{
closed = 1;
nodes = (
(287,0,l),
(412,644,l),
(625,644,l),
(636,700,l),
(140,700,l),
(129,644,l),
(341,644,l),
(216,0,l)
);
}
);
userData = {
assembly = "NPUSHB[ ]	/* 24 values pushed */
2 1 0 0 1 95 0 1 1 14 77 0 3 3 15 3 78 17 17 17 16 4 7 26 
CALL[ ]	/* CallFunction */";
};
width = 503;
}
);
note = T;
unicode = 84;
},
{
glyphname = U;
lastChange = "2023-01-01 20:29:52 +0000";
layers = (
{
layerId = "F37970A2-6E00-4E94-80D5-69451598B5C0";
shapes = (
{
closed = 1;
nodes = (
(456,-9,o),
(571,93,o),
(600,243,cs),
(689,700,l),
(617,700,l),
(528,243,ls),
(504,121,o),
(424,43,o),
(327,43,cs),
(230,43,o),
(180,121,o),
(204,243,cs),
(293,700,l),
(221,700,l),
(132,243,ls),
(103,93,o),
(178,-9,o),
(317,-9,cs)
);
}
);
userData = {
assembly = "MPPEM[ ]	/* MeasurePixelPerEm */
PUSHB[ ]	/* 1 value pushed */
9 
LT[ ]	/* LessThan */
IF[ ]	/* If */
NPUSHB[ ]	/* 18 values pushed */
2 1 0 0 14 77 0 1 1 3 97 4 1 3 3 21 3 78 
ELSE[ ]	/* Else */
NPUSHB[ ]	/* 18 values pushed */
2 1 0 0 14 77 0 1 1 3 97 4 1 3 3 24 3 78 
EIF[ ]	/* EndIf */
NPUSHB[ ]	/* 12 values pushed */
0 0 0 17 0 16 19 35 19 5 7 25 
CALL[ ]	/* CallFunction */";
};
width = 620;
}
);
note = U;
unicode = 85;
},
{
glyphname = Udieresis;
lastChange = "2023-01-01 20:29:52 +0000";
layers = (
{
layerId = "F37970A2-6E00-4E94-80D5-69451598B5C0";
shapes = (
{
closed = 1;
nodes = (
(390,770,o),
(415,791,o),
(420,820,cs),
(425,844,o),
(409,871,o),
(384,871,cs),
(358,871,o),
(334,850,o),
(328,820,cs),
(323,791,o),
(338,770,o),
(364,770,cs)
);
},
{
closed = 1;
nodes = (
(540,791,o),
(556,770,o),
(583,770,cs),
(609,770,o),
(635,791,o),
(640,820,cs),
(646,850,o),
(628,871,o),
(603,871,cs),
(576,871,o),
(550,845,o),
(545,820,cs)
);
},
{
closed = 1;
nodes = (
(456,-9,o),
(571,93,o),
(600,243,cs),
(689,700,l),
(617,700,l),
(528,243,ls),
(504,121,o),
(424,43,o),
(327,43,cs),
(230,43,o),
(180,121,o),
(204,243,cs),
(293,700,l),
(221,700,l),
(132,243,ls),
(103,93,o),
(178,-9,o),
(317,-9,cs)
);
}
);
width = 641;
}
);
note = Udieresis;
unicode = 220;
},
{
glyphname = V;
lastChange = "2023-01-01 20:29:52 +0000";
layers = (
{
layerId = "F37970A2-6E00-4E94-80D5-69451598B5C0";
shapes = (
{
closed = 1;
nodes = (
(292,0,l),
(657,700,l),
(589,700,l),
(283,103,l),
(219,700,l),
(147,700,l),
(230,0,l)
);
}
);
userData = {
assembly = "NPUSHB[ ]	/* 24 values pushed */
2 1 2 0 1 76 1 1 0 0 14 77 0 2 2 15 2 78 17 18 16 3 7 25 
CALL[ ]	/* CallFunction */";
};
width = 521;
}
);
note = V;
unicode = 86;
},
{
glyphname = W;
lastChange = "2023-01-01 20:29:52 +0000";
layers = (
{
layerId = "F37970A2-6E00-4E94-80D5-69451598B5C0";
shapes = (
{
closed = 1;
nodes = (
(260,0,l),
(522,578,l),
(547,0,l),
(611,0,l),
(939,700,l),
(871,700,l),
(607,119,l),
(587,700,l),
(512,700,l),
(254,118,l),
(230,700,l),
(154,700,l),
(197,0,l)
);
}
);
userData = {
assembly = "NPUSHB[ ]	/* 30 values pushed */
10 5 2 3 3 0 1 76 2 1 2 0 0 14 77 4 1 3 3 15 3 78 18 17 18 18 16 5 7 27 
CALL[ ]	/* CallFunction */";
};
width = 803;
}
);
note = W;
unicode = 87;
},
{
glyphname = X;
lastChange = "2023-01-01 20:29:52 +0000";
layers = (
{
layerId = "F37970A2-6E00-4E94-80D5-69451598B5C0";
shapes = (
{
closed = 1;
nodes = (
(96,0,l),
(332,309,l),
(442,0,l),
(522,0,l),
(385,373,l),
(631,700,l),
(560,700,l),
(357,427,l),
(263,700,l),
(180,700,l),
(305,364,l),
(25,0,l)
);
}
);
userData = {
assembly = "NPUSHB[ ]	/* 28 values pushed */
9 6 3 3 2 0 1 76 1 1 0 0 14 77 3 1 2 2 15 2 78 18 18 18 17 4 7 26 
CALL[ ]	/* CallFunction */";
};
width = 550;
}
);
note = X;
unicode = 88;
},
{
glyphname = Y;
lastChange = "2023-01-01 20:29:52 +0000";
layers = (
{
layerId = "F37970A2-6E00-4E94-80D5-69451598B5C0";
shapes = (
{
closed = 1;
nodes = (
(316,0,l),
(375,302,l),
(671,700,l),
(601,699,l),
(355,357,l),
(231,700,l),
(154,700,l),
(303,304,l),
(244,0,l)
);
}
);
userData = {
assembly = "NPUSHB[ ]	/* 26 values pushed */
6 3 0 3 2 0 1 76 1 1 0 0 14 77 0 2 2 15 2 78 18 18 17 3 7 25 
CALL[ ]	/* CallFunction */";
};
width = 511;
}
);
note = Y;
unicode = 89;
},
{
glyphname = Z;
lastChange = "2023-01-01 20:29:52 +0000";
layers = (
{
layerId = "F37970A2-6E00-4E94-80D5-69451598B5C0";
shapes = (
{
closed = 1;
nodes = (
(501,0,l),
(515,66,l),
(137,66,l),
(629,648,l),
(639,700,l),
(193,700,l),
(180,634,l),
(546,634,l),
(55,51,l),
(45,0,l)
);
}
);
userData = {
assembly = "NPUSHB[ ]	/* 38 values pushed */
5 1 0 1 0 1 3 2 2 76 0 0 0 1 95 0 1 1 14 77 0 2 2 3 95 0 3 3 15 3 78 17 18 17 17 4 7 26 
CALL[ ]	/* CallFunction */";
};
width = 535;
}
);
note = Z;
unicode = 90;
},
{
glyphname = a;
lastChange = "2023-01-01 20:37:05 +0000";
layers = (
{
layerId = "F37970A2-6E00-4E94-80D5-69451598B5C0";
shapes = (
{
closed = 1;
nodes = (
(435,0,l),
(531,500,l),
(470,500,l),
(448,460,l),
(423,489,o),
(375,510,o),
(330,510,cs),
(213,510,o),
(111,408,o),
(83,264,cs),
(54,115,o),
(116,-10,o),
(236,-10,cs),
(290,-10,o),
(348,17,o),
(376,54,c),
(376,0,l)
);
},
{
closed = 1;
nodes = (
(174,377,o),
(249,458,o),
(332,458,cs),
(372,458,o),
(417,432,o),
(441,395,c),
(389,120,l),
(359,76,o),
(302,42,o),
(253,42,cs),
(170,42,o),
(129,146,o),
(152,264,cs)
);
}
);
userData = {
assembly = "NPUSHB[ ]	/* 12 values pushed */
35 34 8 3 5 1 25 1 3 5 2 76 
MPPEM[ ]	/* MeasurePixelPerEm */
PUSHB[ ]	/* 1 value pushed */
27 
LT[ ]	/* LessThan */
IF[ ]	/* If */
NPUSHB[ ]	/* 31 values pushed */
0 1 0 5 0 1 5 128 0 0 0 2 97 0 2 2 23 77 0 5 5 3 97 6 4 2 3 3 15 3 78 
ELSE[ ]	/* Else */
NPUSHB[ ]	/* 35 values pushed */
0 1 0 5 0 1 5 128 0 0 0 2 97 0 2 2 23 77 0 3 3 15 77 0 5 5 4 97 6 1 4 4 24 4 78 
EIF[ ]	/* EndIf */
NPUSHB[ ]	/* 15 values pushed */
0 0 32 30 0 28 0 27 19 34 18 43 7 7 26 
CALL[ ]	/* CallFunction */";
};
width = 499;
}
);
note = a;
unicode = 97;
},
{
glyphname = adieresis;
lastChange = "2023-01-01 20:42:42 +0000";
layers = (
{
layerId = "F37970A2-6E00-4E94-80D5-69451598B5C0";
shapes = (
{
closed = 1;
nodes = (
(287,621,o),
(312,642,o),
(317,669,cs),
(322,695,o),
(306,719,o),
(280,719,cs),
(254,719,o),
(229,697,o),
(223,669,cs),
(218,642,o),
(235,621,o),
(261,621,cs)
);
},
{
closed = 1;
nodes = (
(436,642,o),
(452,621,o),
(479,621,cs),
(506,621,o),
(530,642,o),
(535,669,cs),
(541,697,o),
(524,719,o),
(498,719,cs),
(471,719,o),
(446,695,o),
(441,669,cs)
);
},
{
closed = 1;
nodes = (
(424,0,l),
(520,500,l),
(459,500,l),
(437,460,l),
(412,489,o),
(364,510,o),
(319,510,cs),
(202,510,o),
(100,408,o),
(72,264,cs),
(43,115,o),
(105,-10,o),
(225,-10,cs),
(279,-10,o),
(337,17,o),
(365,54,c),
(365,0,l)
);
},
{
closed = 1;
nodes = (
(163,377,o),
(238,458,o),
(321,458,cs),
(361,458,o),
(406,432,o),
(430,395,c),
(378,120,l),
(348,76,o),
(291,42,o),
(242,42,cs),
(159,42,o),
(118,146,o),
(141,264,cs)
);
}
);
width = 499;
}
);
note = adieresis;
unicode = 228;
},
{
glyphname = b;
lastChange = "2023-01-01 20:29:52 +0000";
layers = (
{
layerId = "F37970A2-6E00-4E94-80D5-69451598B5C0";
shapes = (
{
closed = 1;
nodes = (
(396,-9,o),
(495,100,o),
(526,259,cs),
(555,407,o),
(497,509,o),
(383,509,cs),
(333,509,o),
(269,476,o),
(227,428,c),
(280,700,l),
(211,700,l),
(75,-1,l),
(134,-1,l),
(162,71,l),
(189,24,o),
(237,-9,o),
(282,-9,cs)
);
},
{
closed = 1;
nodes = (
(215,364,l),
(257,420,o),
(317,455,o),
(364,455,cs),
(442,455,o),
(479,378,o),
(456,259,cs),
(431,130,o),
(362,45,o),
(284,45,cs),
(243,45,o),
(198,83,o),
(171,140,c)
);
}
);
userData = {
assembly = "NPUSHB[ ]	/* 15 values pushed */
7 1 5 2 28 27 2 4 5 2 1 0 4 3 76 
MPPEM[ ]	/* MeasurePixelPerEm */
PUSHB[ ]	/* 1 value pushed */
30 
LT[ ]	/* LessThan */
IF[ ]	/* If */
NPUSHB[ ]	/* 28 values pushed */
0 1 1 14 77 0 5 5 2 97 0 2 2 17 77 0 4 4 0 97 6 3 2 0 0 15 0 78 
ELSE[ ]	/* Else */
NPUSHB[ ]	/* 32 values pushed */
0 1 1 14 77 0 5 5 2 97 0 2 2 17 77 0 0 0 15 77 0 4 4 3 97 6 1 3 3 24 3 78 
EIF[ ]	/* EndIf */
NPUSHB[ ]	/* 16 values pushed */
0 0 26 24 20 18 0 16 0 15 35 17 19 7 7 25 
CALL[ ]	/* CallFunction */";
};
width = 515;
}
);
note = b;
unicode = 98;
},
{
glyphname = c;
lastChange = "2023-01-01 20:29:52 +0000";
layers = (
{
layerId = "F37970A2-6E00-4E94-80D5-69451598B5C0";
shapes = (
{
closed = 1;
nodes = (
(343,-10,o),
(424,44,o),
(439,120,c),
(378,120,l),
(370,75,o),
(318,43,o),
(254,43,cs),
(176,43,o),
(138,131,o),
(163,255,cs),
(186,374,o),
(257,457,o),
(335,457,cs),
(399,457,o),
(437,422,o),
(427,371,c),
(488,371,l),
(504,452,o),
(444,510,o),
(345,510,cs),
(226,510,o),
(122,405,o),
(93,255,cs),
(62,100,o),
(125,-10,o),
(244,-10,cs)
);
}
);
userData = {
assembly = "NPUSHB[ ]	/* 51 values pushed */
0 1 2 4 2 1 4 128 0 4 3 2 4 3 126 0 2 2 0 97 0 0 0 23 77 0 3 3 5 97 6 1 5 5 21 5 78 0 0 0 25 0 24 18 36 34 18 36 7 7 27 
CALL[ ]	/* CallFunction */";
};
width = 455;
}
);
note = c;
unicode = 99;
},
{
glyphname = d;
lastChange = "2023-01-01 20:29:52 +0000";
layers = (
{
layerId = "F37970A2-6E00-4E94-80D5-69451598B5C0";
shapes = (
{
closed = 1;
nodes = (
(291,-9,o),
(353,18,o),
(391,57,c),
(393,-1,l),
(454,-1,l),
(590,700,l),
(522,700,l),
(475,458,l),
(448,488,o),
(394,509,o),
(345,509,cs),
(222,509,o),
(114,403,o),
(85,252,cs),
(55,99,o),
(119,-9,o),
(241,-9,cs)
);
},
{
closed = 1;
nodes = (
(178,373,o),
(255,458,o),
(339,458,cs),
(388,458,o),
(439,433,o),
(463,398,c),
(410,125,l),
(365,78,o),
(302,44,o),
(258,44,cs),
(174,44,o),
(131,130,o),
(155,252,cs)
);
}
);
userData = {
assembly = "NPUSHB[ ]	/* 15 values pushed */
8 1 5 0 22 21 2 4 5 13 1 2 4 3 76 
MPPEM[ ]	/* MeasurePixelPerEm */
PUSHB[ ]	/* 1 value pushed */
30 
LT[ ]	/* LessThan */
IF[ ]	/* If */
NPUSHB[ ]	/* 28 values pushed */
0 1 1 14 77 0 5 5 0 97 0 0 0 23 77 0 4 4 2 97 6 3 2 2 2 15 2 78 
ELSE[ ]	/* Else */
NPUSHB[ ]	/* 32 values pushed */
0 1 1 14 77 0 5 5 0 97 0 0 0 23 77 0 2 2 15 77 0 4 4 3 97 6 1 3 3 24 3 78 
EIF[ ]	/* EndIf */
NPUSHB[ ]	/* 16 values pushed */
0 0 26 24 20 18 0 16 0 15 17 19 36 7 7 25 
CALL[ ]	/* CallFunction */";
};
width = 512;
}
);
note = d;
unicode = 100;
},
{
glyphname = e;
lastChange = "2023-01-01 20:29:52 +0000";
layers = (
{
layerId = "F37970A2-6E00-4E94-80D5-69451598B5C0";
shapes = (
{
closed = 1;
nodes = (
(357,-10,o),
(447,47,o),
(479,128,c),
(417,128,l),
(391,77,o),
(331,41,o),
(272,41,cs),
(184,41,o),
(136,121,o),
(158,234,cs),
(159,236,l),
(505,236,l),
(511,267,ls),
(538,409,o),
(476,510,o),
(361,510,cs),
(234,510,o),
(124,406,o),
(95,258,cs),
(65,101,o),
(133,-10,o),
(262,-10,cs)
);
},
{
closed = 1;
nodes = (
(190,386,o),
(265,459,o),
(351,459,cs),
(426,459,o),
(466,386,o),
(447,284,c),
(169,284,l)
);
}
);
userData = {
assembly = "MPPEM[ ]	/* MeasurePixelPerEm */
PUSHB[ ]	/* 1 value pushed */
9 
LT[ ]	/* LessThan */
IF[ ]	/* If */
NPUSHB[ ]	/* 39 values pushed */
0 3 1 2 1 3 2 128 8 1 6 0 1 3 6 1 103 0 5 5 0 97 0 0 0 23 77 0 2 2 4 97 7 1 4 4 21 4 78 
ELSE[ ]	/* Else */
NPUSHB[ ]	/* 39 values pushed */
0 3 1 2 1 3 2 128 8 1 6 0 1 3 6 1 103 0 5 5 0 97 0 0 0 23 77 0 2 2 4 97 7 1 4 4 24 4 78 
EIF[ ]	/* EndIf */
NPUSHB[ ]	/* 21 values pushed */
22 22 0 0 22 27 22 27 26 24 0 21 0 20 18 35 19 36 9 7 26 
CALL[ ]	/* CallFunction */";
};
width = 500;
}
);
note = e;
unicode = 101;
},
{
glyphname = f;
lastChange = "2023-01-01 20:29:52 +0000";
layers = (
{
layerId = "F37970A2-6E00-4E94-80D5-69451598B5C0";
shapes = (
{
closed = 1;
nodes = (
(177,0,l),
(264,449,l),
(395,449,l),
(405,500,l),
(274,500,l),
(284,550,ls),
(295,607,o),
(337,648,o),
(385,648,cs),
(434,648,l),
(444,700,l),
(393,700,ls),
(305,700,o),
(231,637,o),
(214,549,cs),
(204,500,l),
(109,500,l),
(99,449,l),
(194,449,l),
(107,0,l)
);
}
);
userData = {
assembly = "NPUSHB[ ]	/* 38 values pushed */
0 3 3 2 95 0 2 2 14 77 5 1 0 0 1 95 4 1 1 1 17 77 0 6 6 15 6 78 17 17 19 33 35 17 16 7 7 29 
CALL[ ]	/* CallFunction */";
};
width = 318;
}
);
note = f;
unicode = 102;
},
{
glyphname = g;
lastChange = "2023-01-01 20:37:30 +0000";
layers = (
{
layerId = "F37970A2-6E00-4E94-80D5-69451598B5C0";
shapes = (
{
closed = 1;
nodes = (
(323,-210,o),
(416,-136,o),
(437,-31,cs),
(540,500,l),
(479,500,l),
(457,460,l),
(432,489,o),
(384,510,o),
(339,510,cs),
(222,510,o),
(120,408,o),
(92,264,cs),
(63,115,o),
(127,10,o),
(247,10,cs),
(301,10,o),
(359,35,o),
(387,72,c),
(367,-31,ls),
(352,-107,o),
(292,-159,o),
(221,-159,cs),
(158,-159,o),
(120,-127,o),
(129,-82,c),
(57,-82,l),
(42,-157,o),
(105,-210,o),
(211,-210,cs)
);
},
{
closed = 1;
nodes = (
(183,377,o),
(258,458,o),
(341,458,cs),
(381,458,o),
(426,432,o),
(450,395,c),
(400,138,l),
(370,94,o),
(313,62,o),
(264,62,cs),
(181,62,o),
(138,146,o),
(161,264,cs)
);
}
);
userData = {
assembly = "MPPEM[ ]	/* MeasurePixelPerEm */
PUSHB[ ]	/* 1 value pushed */
34 
LT[ ]	/* LessThan */
IF[ ]	/* If */
NPUSHB[ ]	/* 15 values pushed */
22 1 7 3 35 34 2 6 7 10 1 2 6 3 76 
ELSE[ ]	/* Else */
NPUSHB[ ]	/* 15 values pushed */
22 1 7 4 35 34 2 6 7 10 1 2 6 3 76 
EIF[ ]	/* EndIf */
MPPEM[ ]	/* MeasurePixelPerEm */
PUSHB[ ]	/* 1 value pushed */
21 
LT[ ]	/* LessThan */
IF[ ]	/* If */
NPUSHB[ ]	/* 40 values pushed */
0 0 2 1 1 0 114 0 7 7 3 97 4 1 3 3 17 77 0 6 6 2 97 0 2 2 15 77 0 1 1 5 98 8 1 5 5 25 5 78 
ELSE[ ]	/* Else */
MPPEM[ ]	/* MeasurePixelPerEm */
PUSHB[ ]	/* 1 value pushed */
30 
LT[ ]	/* LessThan */
IF[ ]	/* If */
NPUSHB[ ]	/* 41 values pushed */
0 0 2 1 2 0 1 128 0 7 7 3 97 4 1 3 3 17 77 0 6 6 2 97 0 2 2 15 77 0 1 1 5 98 8 1 5 5 25 5 78 
ELSE[ ]	/* Else */
MPPEM[ ]	/* MeasurePixelPerEm */
PUSHB[ ]	/* 1 value pushed */
34 
LT[ ]	/* LessThan */
IF[ ]	/* If */
NPUSHB[ ]	/* 39 values pushed */
0 0 2 1 2 0 1 128 0 6 0 2 0 6 2 105 0 7 7 3 97 4 1 3 3 17 77 0 1 1 5 98 8 1 5 5 25 5 78 
ELSE[ ]	/* Else */
NPUSHB[ ]	/* 43 values pushed */
0 0 2 1 2 0 1 128 0 6 0 2 0 6 2 105 0 4 4 17 77 0 7 7 3 97 0 3 3 17 77 0 1 1 5 98 8 1 5 5 25 5 78 
EIF[ ]	/* EndIf */
EIF[ ]	/* EndIf */
EIF[ ]	/* EndIf */
NPUSHB[ ]	/* 18 values pushed */
0 0 38 36 32 30 0 28 0 27 19 36 37 34 18 9 7 27 
CALL[ ]	/* CallFunction */";
};
width = 502;
}
);
note = g;
unicode = 103;
},
{
glyphname = h;
lastChange = "2023-01-01 20:29:52 +0000";
layers = (
{
layerId = "F37970A2-6E00-4E94-80D5-69451598B5C0";
shapes = (
{
closed = 1;
nodes = (
(143,0,l),
(216,373,l),
(256,421,o),
(323,457,o),
(376,457,cs),
(438,457,o),
(473,411,o),
(461,348,cs),
(393,0,l),
(464,0,l),
(532,348,ls),
(550,443,o),
(493,510,o),
(394,510,cs),
(335,510,o),
(266,480,o),
(228,437,c),
(279,700,l),
(209,700,l),
(73,0,l)
);
}
);
userData = {
assembly = "NPUSHB[ ]	/* 40 values pushed */
2 1 3 1 17 1 2 3 2 76 0 0 0 14 77 0 3 3 1 97 0 1 1 23 77 4 1 2 2 15 2 78 19 35 19 35 16 5 7 27 
CALL[ ]	/* CallFunction */";
};
width = 529;
}
);
note = h;
unicode = 104;
},
{
glyphname = i;
lastChange = "2023-01-01 20:29:52 +0000";
layers = (
{
layerId = "F37970A2-6E00-4E94-80D5-69451598B5C0";
shapes = (
{
closed = 1;
nodes = (
(164,0,l),
(261,500,l),
(191,500,l),
(94,0,l)
);
},
{
closed = 1;
nodes = (
(204,631,o),
(219,609,o),
(246,609,cs),
(273,609,o),
(298,631,o),
(303,659,cs),
(308,686,o),
(292,707,o),
(265,707,cs),
(238,707,o),
(214,686,o),
(209,659,cs)
);
}
);
userData = {
assembly = "MPPEM[ ]	/* MeasurePixelPerEm */
PUSHB[ ]	/* 1 value pushed */
28 
LT[ ]	/* LessThan */
IF[ ]	/* If */
NPUSHB[ ]	/* 21 values pushed */
0 3 3 2 97 0 2 2 22 77 0 0 0 17 77 0 1 1 15 1 78 
ELSE[ ]	/* Else */
NPUSHB[ ]	/* 19 values pushed */
0 2 0 3 0 2 3 105 0 0 0 17 77 0 1 1 15 1 78 
EIF[ ]	/* EndIf */
PUSHB[ ]	/* 7 values pushed */
36 34 17 16 4 7 26 
CALL[ ]	/* CallFunction */";
};
width = 256;
}
);
note = i;
unicode = 105;
},
{
glyphname = j;
lastChange = "2023-01-01 20:37:39 +0000";
layers = (
{
layerId = "F37970A2-6E00-4E94-80D5-69451598B5C0";
shapes = (
{
closed = 1;
nodes = (
(67,-203,o),
(143,-123,o),
(166,0,cs),
(264,500,l),
(194,500,l),
(96,0,ls),
(79,-91,o),
(35,-150,o),
(-15,-150,c),
(-25,-203,l)
);
},
{
closed = 1;
nodes = (
(204,623,o),
(220,601,o),
(248,601,cs),
(275,601,o),
(301,623,o),
(306,651,cs),
(311,678,o),
(294,698,o),
(267,698,cs),
(239,698,o),
(214,678,o),
(209,651,cs)
);
}
);
userData = {
assembly = "MPPEM[ ]	/* MeasurePixelPerEm */
PUSHB[ ]	/* 1 value pushed */
28 
LT[ ]	/* LessThan */
IF[ ]	/* If */
NPUSHB[ ]	/* 27 values pushed */
0 4 4 3 97 0 3 3 22 77 0 0 0 17 77 5 1 2 2 1 98 0 1 1 19 1 78 
ELSE[ ]	/* Else */
MPPEM[ ]	/* MeasurePixelPerEm */
PUSHB[ ]	/* 1 value pushed */
42 
LT[ ]	/* LessThan */
IF[ ]	/* If */
NPUSHB[ ]	/* 27 values pushed */
0 4 4 3 97 0 3 3 20 77 0 0 0 17 77 5 1 2 2 1 98 0 1 1 19 1 78 
ELSE[ ]	/* Else */
NPUSHB[ ]	/* 25 values pushed */
0 3 0 4 0 3 4 105 0 0 0 17 77 5 1 2 2 1 98 0 1 1 19 1 78 
EIF[ ]	/* EndIf */
EIF[ ]	/* EndIf */
NPUSHB[ ]	/* 15 values pushed */
0 0 19 17 13 11 0 9 0 9 19 19 6 7 24 
CALL[ ]	/* CallFunction */";
};
width = 260;
}
);
note = j;
unicode = 106;
},
{
glyphname = k;
lastChange = "2023-01-01 20:29:52 +0000";
layers = (
{
layerId = "F37970A2-6E00-4E94-80D5-69451598B5C0";
shapes = (
{
closed = 1;
nodes = (
(491,0,l),
(343,306,l),
(565,500,l),
(479,500,l),
(198,252,l),
(285,700,l),
(216,700,l),
(80,1,l),
(149,1,l),
(181,167,l),
(290,260,l),
(409,0,l)
);
}
);
userData = {
assembly = "NPUSHB[ ]	/* 33 values pushed */
9 8 5 2 4 2 1 1 76 0 0 0 14 77 0 1 1 17 77 3 1 2 2 15 2 78 19 18 18 16 4 7 26 
CALL[ ]	/* CallFunction */";
};
width = 503;
}
);
note = k;
unicode = 107;
},
{
glyphname = l;
lastChange = "2023-01-01 20:29:52 +0000";
layers = (
{
layerId = "F37970A2-6E00-4E94-80D5-69451598B5C0";
shapes = (
{
closed = 1;
nodes = (
(150,0,l),
(286,700,l),
(216,700,l),
(80,0,l)
);
}
);
userData = {
assembly = "NPUSHB[ ]	/* 16 values pushed */
0 0 0 14 77 0 1 1 15 1 78 17 16 2 7 24 
CALL[ ]	/* CallFunction */";
};
width = 229;
}
);
note = l;
unicode = 108;
},
{
glyphname = m;
lastChange = "2023-01-01 20:29:52 +0000";
layers = (
{
layerId = "F37970A2-6E00-4E94-80D5-69451598B5C0";
shapes = (
{
closed = 1;
nodes = (
(135,0,l),
(206,363,l),
(248,421,o),
(309,462,o),
(353,462,cs),
(418,462,o),
(453,409,o),
(438,336,cs),
(373,0,l),
(443,0,l),
(514,363,l),
(554,417,o),
(615,456,o),
(660,456,cs),
(724,456,o),
(761,410,o),
(748,346,cs),
(681,0,l),
(751,0,l),
(818,346,ls),
(837,442,o),
(784,510,o),
(690,510,cs),
(624,510,o),
(552,475,o),
(518,426,c),
(513,420,l),
(499,476,o),
(445,516,o),
(384,516,cs),
(329,516,o),
(263,483,o),
(224,436,c),
(222,500,l),
(163,500,l),
(66,0,l)
);
}
);
userData = {
assembly = "NPUSHB[ ]	/* 12 values pushed */
7 2 2 4 0 31 22 2 3 4 2 76 
MPPEM[ ]	/* MeasurePixelPerEm */
PUSHB[ ]	/* 1 value pushed */
34 
LT[ ]	/* LessThan */
IF[ ]	/* If */
NPUSHB[ ]	/* 21 values pushed */
6 1 4 4 0 97 2 1 2 0 0 17 77 7 5 2 3 3 15 3 78 
ELSE[ ]	/* Else */
NPUSHB[ ]	/* 25 values pushed */
0 0 0 17 77 6 1 4 4 1 97 2 1 1 1 17 77 7 5 2 3 3 15 3 78 
EIF[ ]	/* EndIf */
NPUSHB[ ]	/* 11 values pushed */
19 35 19 35 19 36 34 16 8 7 30 
CALL[ ]	/* CallFunction */";
};
width = 816;
}
);
note = m;
unicode = 109;
},
{
glyphname = n;
lastChange = "2023-01-01 20:29:52 +0000";
layers = (
{
layerId = "F37970A2-6E00-4E94-80D5-69451598B5C0";
shapes = (
{
closed = 1;
nodes = (
(136,0,l),
(206,362,l),
(247,417,o),
(311,456,o),
(367,456,cs),
(428,456,o),
(466,411,o),
(453,346,cs),
(386,0,l),
(457,0,l),
(524,346,ls),
(543,442,o),
(482,510,o),
(383,510,cs),
(323,510,o),
(259,478,o),
(223,434,c),
(223,500,l),
(163,500,l),
(66,0,l)
);
}
);
userData = {
assembly = "NPUSHB[ ]	/* 10 values pushed */
2 1 3 0 17 1 2 3 2 76 
MPPEM[ ]	/* MeasurePixelPerEm */
PUSHB[ ]	/* 1 value pushed */
34 
LT[ ]	/* LessThan */
IF[ ]	/* If */
NPUSHB[ ]	/* 18 values pushed */
0 3 3 0 97 1 1 0 0 17 77 4 1 2 2 15 2 78 
ELSE[ ]	/* Else */
NPUSHB[ ]	/* 22 values pushed */
0 0 0 17 77 0 3 3 1 97 0 1 1 17 77 4 1 2 2 15 2 78 
EIF[ ]	/* EndIf */
PUSHB[ ]	/* 8 values pushed */
19 35 19 35 16 5 7 27 
CALL[ ]	/* CallFunction */";
};
width = 522;
}
);
note = n;
unicode = 110;
},
{
glyphname = o;
lastChange = "2023-01-01 20:29:52 +0000";
layers = (
{
layerId = "F37970A2-6E00-4E94-80D5-69451598B5C0";
shapes = (
{
closed = 1;
nodes = (
(398,-10,o),
(503,96,o),
(536,269,cs),
(565,419,o),
(499,510,o),
(361,510,cs),
(226,510,o),
(125,414,o),
(95,257,cs),
(63,91,o),
(125,-10,o),
(260,-10,cs)
);
},
{
closed = 1;
nodes = (
(190,387,o),
(260,457,o),
(351,457,cs),
(445,457,o),
(488,380,o),
(463,254,cs),
(438,123,o),
(364,43,o),
(270,43,cs),
(179,43,o),
(140,130,o),
(168,272,cs)
);
}
);
userData = {
assembly = "MPPEM[ ]	/* MeasurePixelPerEm */
PUSHB[ ]	/* 1 value pushed */
11 
LT[ ]	/* LessThan */
IF[ ]	/* If */
NPUSHB[ ]	/* 22 values pushed */
0 3 3 0 97 0 0 0 23 77 0 2 2 1 97 4 1 1 1 21 1 78 
ELSE[ ]	/* Else */
NPUSHB[ ]	/* 22 values pushed */
0 3 3 0 97 0 0 0 23 77 0 2 2 1 97 4 1 1 1 24 1 78 
EIF[ ]	/* EndIf */
NPUSHB[ ]	/* 14 values pushed */
0 0 19 17 14 12 0 11 0 10 36 5 7 23 
CALL[ ]	/* CallFunction */";
};
width = 525;
}
);
note = o;
unicode = 111;
},
{
glyphname = odieresis;
lastChange = "2023-01-01 20:29:52 +0000";
layers = (
{
layerId = "F37970A2-6E00-4E94-80D5-69451598B5C0";
shapes = (
{
closed = 1;
nodes = (
(303,621,o),
(328,642,o),
(333,669,cs),
(338,695,o),
(322,719,o),
(297,719,cs),
(271,719,o),
(245,697,o),
(240,669,cs),
(235,642,o),
(252,621,o),
(278,621,cs)
);
},
{
closed = 1;
nodes = (
(452,642,o),
(469,621,o),
(496,621,cs),
(522,621,o),
(547,642,o),
(552,669,cs),
(557,697,o),
(541,719,o),
(515,719,cs),
(487,719,o),
(462,695,o),
(457,669,cs)
);
},
{
closed = 1;
nodes = (
(398,-10,o),
(503,96,o),
(536,269,cs),
(565,419,o),
(499,510,o),
(361,510,cs),
(226,510,o),
(125,414,o),
(95,257,cs),
(63,91,o),
(125,-10,o),
(260,-10,cs)
);
},
{
closed = 1;
nodes = (
(190,387,o),
(260,457,o),
(351,457,cs),
(445,457,o),
(488,380,o),
(463,254,cs),
(438,123,o),
(364,43,o),
(270,43,cs),
(179,43,o),
(140,130,o),
(168,272,cs)
);
}
);
width = 525;
}
);
note = odieresis;
unicode = 246;
},
{
glyphname = p;
lastChange = "2023-01-01 20:37:48 +0000";
layers = (
{
layerId = "F37970A2-6E00-4E94-80D5-69451598B5C0";
shapes = (
{
closed = 1;
nodes = (
(103,-203,l),
(151,44,l),
(176,12,o),
(230,-10,o),
(281,-10,cs),
(394,-10,o),
(495,99,o),
(524,251,cs),
(554,403,o),
(495,510,o),
(382,510,cs),
(327,510,o),
(264,483,o),
(232,445,c),
(231,501,l),
(170,501,l),
(33,-203,l)
);
},
{
closed = 1;
nodes = (
(216,376,l),
(250,423,o),
(308,456,o),
(359,456,cs),
(438,456,o),
(478,371,o),
(454,251,cs),
(431,130,o),
(359,45,o),
(280,45,cs),
(234,45,o),
(185,69,o),
(162,103,c)
);
}
);
userData = {
assembly = "NPUSHB[ ]	/* 15 values pushed */
2 1 5 0 29 28 2 4 5 14 1 2 4 3 76 
MPPEM[ ]	/* MeasurePixelPerEm */
PUSHB[ ]	/* 1 value pushed */
11 
LT[ ]	/* LessThan */
IF[ ]	/* If */
NPUSHB[ ]	/* 27 values pushed */
0 5 5 0 97 1 1 0 0 17 77 0 4 4 2 97 0 2 2 24 77 0 3 3 19 3 78 
ELSE[ ]	/* Else */
MPPEM[ ]	/* MeasurePixelPerEm */
PUSHB[ ]	/* 1 value pushed */
13 
LT[ ]	/* LessThan */
IF[ ]	/* If */
NPUSHB[ ]	/* 27 values pushed */
0 5 5 0 97 1 1 0 0 17 77 0 4 4 2 97 0 2 2 21 77 0 3 3 19 3 78 
ELSE[ ]	/* Else */
MPPEM[ ]	/* MeasurePixelPerEm */
PUSHB[ ]	/* 1 value pushed */
30 
LT[ ]	/* LessThan */
IF[ ]	/* If */
NPUSHB[ ]	/* 27 values pushed */
0 5 5 0 97 1 1 0 0 17 77 0 4 4 2 97 0 2 2 24 77 0 3 3 19 3 78 
ELSE[ ]	/* Else */
NPUSHB[ ]	/* 31 values pushed */
0 0 0 17 77 0 5 5 1 97 0 1 1 23 77 0 4 4 2 97 0 2 2 24 77 0 3 3 19 3 78 
EIF[ ]	/* EndIf */
EIF[ ]	/* EndIf */
EIF[ ]	/* EndIf */
NPUSHB[ ]	/* 9 values pushed */
36 34 19 36 35 16 6 7 28 
CALL[ ]	/* CallFunction */";
};
width = 516;
}
);
note = p;
unicode = 112;
},
{
glyphname = q;
lastChange = "2023-01-01 20:37:57 +0000";
layers = (
{
layerId = "F37970A2-6E00-4E94-80D5-69451598B5C0";
shapes = (
{
closed = 1;
nodes = (
(414,-200,l),
(550,501,l),
(490,501,l),
(467,451,l),
(444,486,o),
(393,510,o),
(342,510,cs),
(229,510,o),
(127,397,o),
(96,238,cs),
(68,93,o),
(128,-10,o),
(241,-10,cs),
(294,-10,o),
(358,21,o),
(395,63,c),
(344,-200,l)
);
},
{
closed = 1;
nodes = (
(191,366,o),
(264,456,o),
(343,456,cs),
(391,456,o),
(438,423,o),
(456,378,c),
(410,137,l),
(372,83,o),
(311,45,o),
(263,45,cs),
(184,45,o),
(144,125,o),
(166,238,cs)
);
}
);
userData = {
assembly = "MPPEM[ ]	/* MeasurePixelPerEm */
PUSHB[ ]	/* 1 value pushed */
30 
LT[ ]	/* LessThan */
IF[ ]	/* If */
NPUSHB[ ]	/* 15 values pushed */
11 1 5 1 23 22 2 4 5 16 1 0 4 3 76 
ELSE[ ]	/* Else */
NPUSHB[ ]	/* 15 values pushed */
11 1 5 2 23 22 2 4 5 16 1 0 4 3 76 
EIF[ ]	/* EndIf */
MPPEM[ ]	/* MeasurePixelPerEm */
PUSHB[ ]	/* 1 value pushed */
9 
LT[ ]	/* LessThan */
IF[ ]	/* If */
NPUSHB[ ]	/* 27 values pushed */
0 5 5 1 97 2 1 1 1 23 77 0 4 4 0 97 0 0 0 21 77 0 3 3 19 3 78 
ELSE[ ]	/* Else */
MPPEM[ ]	/* MeasurePixelPerEm */
PUSHB[ ]	/* 1 value pushed */
30 
LT[ ]	/* LessThan */
IF[ ]	/* If */
NPUSHB[ ]	/* 27 values pushed */
0 5 5 1 97 2 1 1 1 23 77 0 4 4 0 97 0 0 0 24 77 0 3 3 19 3 78 
ELSE[ ]	/* Else */
NPUSHB[ ]	/* 31 values pushed */
0 2 2 17 77 0 5 5 1 97 0 1 1 23 77 0 4 4 0 97 0 0 0 24 77 0 3 3 19 3 78 
EIF[ ]	/* EndIf */
EIF[ ]	/* EndIf */
NPUSHB[ ]	/* 9 values pushed */
37 35 17 19 36 33 6 7 28 
CALL[ ]	/* CallFunction */";
};
width = 517;
}
);
note = q;
unicode = 113;
},
{
glyphname = r;
lastChange = "2023-01-01 20:29:52 +0000";
layers = (
{
layerId = "F37970A2-6E00-4E94-80D5-69451598B5C0";
shapes = (
{
closed = 1;
nodes = (
(135,0,l),
(198,325,l),
(233,392,o),
(296,439,o),
(349,439,cs),
(362,439,o),
(375,438,o),
(382,436,c),
(395,506,l),
(386,509,o),
(375,510,o),
(369,510,c),
(324,510,o),
(262,469,o),
(220,411,c),
(222,500,l),
(163,500,l),
(66,0,l)
);
}
);
userData = {
assembly = "NPUSHB[ ]	/* 11 values pushed */
2 1 2 0 11 7 2 3 2 2 76 
MPPEM[ ]	/* MeasurePixelPerEm */
PUSHB[ ]	/* 1 value pushed */
38 
LT[ ]	/* LessThan */
IF[ ]	/* If */
NPUSHB[ ]	/* 17 values pushed */
0 2 2 0 97 1 1 0 0 17 77 0 3 3 15 3 78 
ELSE[ ]	/* Else */
NPUSHB[ ]	/* 21 values pushed */
0 0 0 17 77 0 2 2 1 97 0 1 1 17 77 0 3 3 15 3 78 
EIF[ ]	/* EndIf */
PUSHB[ ]	/* 7 values pushed */
18 35 34 16 4 7 26 
CALL[ ]	/* CallFunction */";
};
width = 319;
}
);
note = r;
unicode = 114;
},
{
glyphname = s;
lastChange = "2023-01-01 20:29:52 +0000";
layers = (
{
layerId = "F37970A2-6E00-4E94-80D5-69451598B5C0";
shapes = (
{
closed = 1;
nodes = (
(325,-10,o),
(405,49,o),
(421,131,cs),
(439,221,o),
(369,252,o),
(293,277,cs),
(231,298,o),
(178,321,o),
(189,375,cs),
(198,423,o),
(244,457,o),
(309,457,cs),
(369,457,o),
(399,421,o),
(390,372,c),
(455,372,l),
(471,452,o),
(418,510,o),
(319,510,cs),
(216,510,o),
(139,452,o),
(123,372,cs),
(106,281,o),
(176,250,o),
(251,224,cs),
(314,204,o),
(366,181,o),
(356,128,cs),
(346,79,o),
(297,42,o),
(228,42,cs),
(158,42,o),
(123,79,o),
(134,128,c),
(68,128,l),
(52,49,o),
(111,-10,o),
(218,-10,cs)
);
}
);
userData = {
assembly = "MPPEM[ ]	/* MeasurePixelPerEm */
PUSHB[ ]	/* 1 value pushed */
11 
LT[ ]	/* LessThan */
IF[ ]	/* If */
NPUSHB[ ]	/* 45 values pushed */
8 1 6 4 3 4 6 3 128 0 3 0 4 3 0 126 0 0 1 4 0 1 126 0 4 4 2 97 0 2 2 23 77 0 1 1 5 97 7 1 5 5 21 5 78 
ELSE[ ]	/* Else */
NPUSHB[ ]	/* 45 values pushed */
8 1 6 4 3 4 6 3 128 0 3 0 4 3 0 126 0 0 1 4 0 1 126 0 4 4 2 97 0 2 2 23 77 0 1 1 5 97 7 1 5 5 24 5 78 
EIF[ ]	/* EndIf */
NPUSHB[ ]	/* 20 values pushed */
40 40 0 0 40 41 40 41 0 39 0 38 34 18 43 34 18 9 7 27 
CALL[ ]	/* CallFunction */";
};
width = 435;
}
);
note = s;
unicode = 115;
},
{
glyphname = germandbls;
lastChange = "2023-01-01 20:29:52 +0000";
layers = (
{
layerId = "F37970A2-6E00-4E94-80D5-69451598B5C0";
shapes = (
{
closed = 1;
nodes = (
(135,0,l),
(233,500,ls),
(251,594,o),
(314,661,o),
(385,661,cs),
(460,661,o),
(499,594,o),
(479,500,c),
(396,491,o),
(327,430,o),
(312,353,cs),
(300,289,o),
(340,247,o),
(383,216,cs),
(416,193,o),
(443,170,o),
(438,141,cs),
(424,72,o),
(346,32,o),
(248,44,c),
(239,-1,l),
(378,-12,o),
(489,46,o),
(508,141,cs),
(518,194,o),
(478,233,o),
(433,266,cs),
(398,292,o),
(367,318,o),
(374,353,cs),
(386,413,o),
(451,459,o),
(531,463,c),
(538,496,ls),
(562,622,o),
(502,710,o),
(394,710,cs),
(283,710,o),
(188,623,o),
(164,500,cs),
(66,0,l)
);
}
);
userData = {
assembly = "MPPEM[ ]	/* MeasurePixelPerEm */
PUSHB[ ]	/* 1 value pushed */
17 
LT[ ]	/* LessThan */
IF[ ]	/* If */
NPUSHB[ ]	/* 42 values pushed */
0 6 2 0 2 6 0 128 0 0 1 1 0 112 0 3 3 5 97 0 5 5 14 77 0 2 2 17 77 0 1 1 4 98 8 7 2 4 4 15 4 78 
ELSE[ ]	/* Else */
MPPEM[ ]	/* MeasurePixelPerEm */
PUSHB[ ]	/* 1 value pushed */
30 
LT[ ]	/* LessThan */
IF[ ]	/* If */
NPUSHB[ ]	/* 43 values pushed */
0 6 2 0 2 6 0 128 0 0 1 2 0 1 126 0 3 3 5 97 0 5 5 14 77 0 2 2 17 77 0 1 1 4 98 8 7 2 4 4 15 4 78 
ELSE[ ]	/* Else */
NPUSHB[ ]	/* 47 values pushed */
0 6 2 0 2 6 0 128 0 0 1 2 0 1 126 0 3 3 5 97 0 5 5 14 77 0 2 2 17 77 0 4 4 15 77 0 1 1 7 98 8 1 7 7 24 7 78 
EIF[ ]	/* EndIf */
EIF[ ]	/* EndIf */
NPUSHB[ ]	/* 16 values pushed */
0 0 0 49 0 48 19 35 19 34 28 34 18 9 7 29 
CALL[ ]	/* CallFunction */";
};
width = 522;
}
);
note = germandbls;
unicode = 223;
},
{
glyphname = t;
lastChange = "2023-01-01 20:29:52 +0000";
layers = (
{
layerId = "F37970A2-6E00-4E94-80D5-69451598B5C0";
shapes = (
{
closed = 1;
nodes = (
(242,-3,o),
(260,-1,o),
(271,1,c),
(280,51,l),
(271,48,o),
(254,46,o),
(238,46,c),
(197,48,o),
(180,80,o),
(188,123,cs),
(253,453,l),
(347,453,l),
(356,499,l),
(262,499,l),
(285,622,l),
(232,622,l),
(189,499,l),
(124,499,l),
(115,453,l),
(183,453,l),
(118,123,ls),
(104,49,o),
(145,-3,o),
(227,-3,cs)
);
}
);
userData = {
assembly = "NPUSHB[ ]	/* 44 values pushed */
0 2 1 2 133 4 1 0 0 1 95 3 1 1 1 17 77 0 5 5 6 96 7 1 6 6 15 6 78 0 0 0 19 0 18 35 17 17 17 17 19 8 7 28 
CALL[ ]	/* CallFunction */";
};
width = 292;
}
);
note = t;
unicode = 116;
},
{
glyphname = u;
lastChange = "2023-01-01 20:29:52 +0000";
layers = (
{
layerId = "F37970A2-6E00-4E94-80D5-69451598B5C0";
shapes = (
{
closed = 1;
nodes = (
(286,-9,o),
(350,22,o),
(397,73,c),
(394,0,l),
(459,0,l),
(556,500,l),
(485,500,l),
(415,139,l),
(366,83,o),
(300,44,o),
(253,44,cs),
(189,44,o),
(156,93,o),
(170,167,cs),
(235,500,l),
(165,500,l),
(100,167,ls),
(80,61,o),
(133,-9,o),
(236,-9,cs)
);
}
);
userData = {
assembly = "NPUSHB[ ]	/* 10 values pushed */
11 1 1 0 16 1 3 1 2 76 
MPPEM[ ]	/* MeasurePixelPerEm */
PUSHB[ ]	/* 1 value pushed */
30 
LT[ ]	/* LessThan */
IF[ ]	/* If */
NPUSHB[ ]	/* 19 values pushed */
2 1 0 0 17 77 0 1 1 3 98 5 4 2 3 3 15 3 78 
ELSE[ ]	/* Else */
NPUSHB[ ]	/* 23 values pushed */
2 1 0 0 17 77 0 3 3 15 77 0 1 1 4 98 5 1 4 4 21 4 78 
EIF[ ]	/* EndIf */
NPUSHB[ ]	/* 13 values pushed */
0 0 0 19 0 18 17 19 35 19 6 7 26 
CALL[ ]	/* CallFunction */";
};
width = 522;
}
);
note = u;
unicode = 117;
},
{
glyphname = udieresis;
lastChange = "2023-01-01 20:29:52 +0000";
layers = (
{
layerId = "F37970A2-6E00-4E94-80D5-69451598B5C0";
shapes = (
{
closed = 1;
nodes = (
(294,621,o),
(319,642,o),
(324,669,cs),
(329,695,o),
(314,719,o),
(288,719,cs),
(262,719,o),
(236,697,o),
(231,669,cs),
(226,642,o),
(242,621,o),
(268,621,cs)
);
},
{
closed = 1;
nodes = (
(444,642,o),
(459,621,o),
(487,621,cs),
(513,621,o),
(538,642,o),
(543,669,cs),
(548,697,o),
(533,719,o),
(507,719,cs),
(479,719,o),
(454,695,o),
(449,669,cs)
);
},
{
closed = 1;
nodes = (
(286,-9,o),
(350,22,o),
(397,73,c),
(394,0,l),
(459,0,l),
(556,500,l),
(485,500,l),
(415,139,l),
(366,83,o),
(300,44,o),
(253,44,cs),
(189,44,o),
(156,93,o),
(170,167,cs),
(235,500,l),
(165,500,l),
(100,167,ls),
(80,61,o),
(133,-9,o),
(236,-9,cs)
);
}
);
width = 523;
}
);
note = udieresis;
unicode = 252;
},
{
glyphname = v;
lastChange = "2023-01-01 20:29:52 +0000";
layers = (
{
layerId = "F37970A2-6E00-4E94-80D5-69451598B5C0";
shapes = (
{
closed = 1;
nodes = (
(253,-3,l),
(532,504,l),
(460,504,l),
(238,84,l),
(187,504,l),
(113,504,l),
(185,-3,l)
);
}
);
userData = {
assembly = "NPUSHB[ ]	/* 24 values pushed */
2 1 2 0 1 76 1 1 0 0 17 77 0 2 2 15 2 78 17 18 16 3 7 25 
CALL[ ]	/* CallFunction */";
};
width = 462;
}
);
note = v;
unicode = 118;
},
{
glyphname = w;
lastChange = "2023-01-01 20:29:52 +0000";
layers = (
{
layerId = "F37970A2-6E00-4E94-80D5-69451598B5C0";
shapes = (
{
closed = 1;
nodes = (
(245,0,l),
(444,407,l),
(484,0,l),
(550,0,l),
(809,500,l),
(739,500,l),
(538,92,l),
(498,500,l),
(428,500,l),
(228,92,l),
(183,500,l),
(111,500,l),
(176,0,l)
);
}
);
userData = {
assembly = "NPUSHB[ ]	/* 30 values pushed */
10 5 2 3 3 0 1 76 2 1 2 0 0 17 77 4 1 3 3 15 3 78 18 17 18 18 16 5 7 27 
CALL[ ]	/* CallFunction */";
};
width = 735;
}
);
note = w;
unicode = 119;
},
{
glyphname = x;
lastChange = "2023-01-01 20:29:52 +0000";
layers = (
{
layerId = "F37970A2-6E00-4E94-80D5-69451598B5C0";
shapes = (
{
closed = 1;
nodes = (
(100,0,l),
(275,213,l),
(375,0,l),
(454,0,l),
(324,262,l),
(525,500,l),
(447,500,l),
(296,314,l),
(218,500,l),
(138,500,l),
(247,264,l),
(22,0,l)
);
}
);
userData = {
assembly = "NPUSHB[ ]	/* 28 values pushed */
9 6 3 3 2 0 1 76 1 1 0 0 17 77 3 1 2 2 15 2 78 18 18 18 17 4 7 26 
CALL[ ]	/* CallFunction */";
};
width = 476;
}
);
note = x;
unicode = 120;
},
{
glyphname = y;
lastChange = "2023-01-01 20:38:08 +0000";
layers = (
{
layerId = "F37970A2-6E00-4E94-80D5-69451598B5C0";
shapes = (
{
closed = 1;
nodes = (
(87,-202,o),
(159,-165,o),
(202,-89,cs),
(534,500,l),
(460,500,l),
(238,81,l),
(181,500,l),
(105,500,l),
(189,5,l),
(142,-81,ls),
(119,-123,o),
(67,-149,o),
(-1,-148,c),
(-11,-201,l)
);
}
);
userData = {
assembly = "NPUSHB[ ]	/* 37 values pushed */
6 3 2 3 0 1 76 1 1 0 0 17 77 4 1 3 3 2 98 0 2 2 25 2 78 0 0 0 13 0 13 19 18 20 5 7 25 
CALL[ ]	/* CallFunction */";
};
width = 470;
}
);
note = y;
unicode = 121;
},
{
glyphname = z;
lastChange = "2023-01-01 20:29:52 +0000";
layers = (
{
layerId = "F37970A2-6E00-4E94-80D5-69451598B5C0";
shapes = (
{
closed = 1;
nodes = (
(411,0,l),
(424,60,l),
(135,60,l),
(501,446,l),
(511,500,l),
(151,500,l),
(140,440,l),
(418,440,l),
(54,54,l),
(44,0,l)
);
}
);
userData = {
assembly = "NPUSHB[ ]	/* 38 values pushed */
5 1 0 1 0 1 3 2 2 76 0 0 0 1 95 0 1 1 17 77 0 2 2 3 95 0 3 3 15 3 78 17 18 17 17 4 7 26 
CALL[ ]	/* CallFunction */";
};
width = 458;
}
);
note = z;
unicode = 122;
},
{
glyphname = zero;
lastChange = "2023-01-01 20:29:52 +0000";
layers = (
{
layerId = "F37970A2-6E00-4E94-80D5-69451598B5C0";
shapes = (
{
closed = 1;
nodes = (
(408,-9,o),
(527,140,o),
(571,365,cs),
(611,571,o),
(548,709,o),
(413,709,cs),
(278,709,o),
(162,571,o),
(122,365,cs),
(78,140,o),
(138,-9,o),
(273,-9,cs)
);
},
{
closed = 1;
nodes = (
(227,541,o),
(311,655,o),
(402,655,cs),
(494,655,o),
(534,541,o),
(500,365,cs),
(462,172,o),
(375,45,o),
(283,45,cs),
(192,45,o),
(155,172,o),
(193,365,cs)
);
}
);
userData = {
assembly = "NPUSHB[ ]	/* 36 values pushed */
0 3 3 0 97 0 0 0 20 77 0 2 2 1 97 4 1 1 1 21 1 78 0 0 19 17 14 12 0 11 0 10 36 5 7 23 
CALL[ ]	/* CallFunction */";
};
width = 558;
}
);
note = zero;
unicode = 48;
},
{
glyphname = one;
lastChange = "2023-01-01 20:29:52 +0000";
layers = (
{
layerId = "F37970A2-6E00-4E94-80D5-69451598B5C0";
shapes = (
{
closed = 1;
nodes = (
(266,0,l),
(402,700,l),
(337,700,l),
(136,533,l),
(161,492,l),
(318,613,l),
(199,0,l)
);
}
);
userData = {
assembly = "NPUSHB[ ]	/* 31 values pushed */
0 1 0 1 1 76 0 0 1 2 1 0 2 128 0 1 1 14 77 0 2 2 15 2 78 17 17 17 3 7 25 
CALL[ ]	/* CallFunction */";
};
width = 383;
}
);
note = one;
unicode = 49;
},
{
glyphname = two;
lastChange = "2023-01-01 20:29:52 +0000";
layers = (
{
layerId = "F37970A2-6E00-4E94-80D5-69451598B5C0";
shapes = (
{
closed = 1;
nodes = (
(466,0,l),
(477,59,l),
(148,60,l),
(167,159,o),
(266,238,o),
(369,309,cs),
(463,374,o),
(549,447,o),
(566,534,cs),
(586,637,o),
(521,709,o),
(409,709,cs),
(292,709,o),
(195,633,o),
(175,525,c),
(248,525,l),
(262,602,o),
(325,657,o),
(399,657,cs),
(467,657,o),
(506,606,o),
(492,534,cs),
(477,459,o),
(400,396,o),
(313,335,cs),
(206,260,o),
(99,171,o),
(76,53,cs),
(66,0,l)
);
}
);
userData = {
assembly = "NPUSHB[ ]	/* 37 values pushed */
0 1 0 3 0 1 3 128 0 0 0 2 97 0 2 2 20 77 0 3 3 4 95 0 4 4 15 4 78 17 26 34 18 41 5 7 27 
CALL[ ]	/* CallFunction */";
};
width = 540;
}
);
note = two;
unicode = 50;
},
{
glyphname = three;
lastChange = "2023-01-01 20:29:52 +0000";
layers = (
{
layerId = "F37970A2-6E00-4E94-80D5-69451598B5C0";
shapes = (
{
closed = 1;
nodes = (
(381,-9,o),
(486,78,o),
(510,202,cs),
(525,277,o),
(474,347,o),
(390,371,c),
(471,393,o),
(537,460,o),
(552,534,cs),
(572,639,o),
(509,713,o),
(398,713,cs),
(288,713,o),
(196,636,o),
(177,529,c),
(247,529,l),
(261,605,o),
(320,658,o),
(388,658,cs),
(457,658,o),
(495,607,o),
(481,534,cs),
(466,459,o),
(385,402,o),
(283,396,c),
(272,341,l),
(385,335,o),
(453,276,o),
(439,202,cs),
(421,110,o),
(350,45,o),
(268,45,cs),
(196,45,o),
(155,92,o),
(169,160,c),
(98,160,l),
(76,60,o),
(143,-9,o),
(258,-9,cs)
);
}
);
userData = {
assembly = "PUSHB[ ]	/* 6 values pushed */
30 1 2 3 1 76 
MPPEM[ ]	/* MeasurePixelPerEm */
PUSHB[ ]	/* 1 value pushed */
9 
LT[ ]	/* LessThan */
IF[ ]	/* If */
NPUSHB[ ]	/* 45 values pushed */
0 5 4 3 4 5 114 0 0 2 1 2 0 1 128 0 3 0 2 0 3 2 105 0 4 4 6 97 0 6 6 20 77 0 1 1 7 97 8 1 7 7 21 7 78 
ELSE[ ]	/* Else */
NPUSHB[ ]	/* 46 values pushed */
0 5 4 3 4 5 3 128 0 0 2 1 2 0 1 128 0 3 0 2 0 3 2 105 0 4 4 6 97 0 6 6 20 77 0 1 1 7 97 8 1 7 7 21 7 78 
EIF[ ]	/* EndIf */
NPUSHB[ ]	/* 16 values pushed */
0 0 0 36 0 35 33 18 36 17 19 34 18 9 7 29 
CALL[ ]	/* CallFunction */";
};
width = 543;
}
);
note = three;
unicode = 51;
},
{
glyphname = four;
lastChange = "2023-01-01 20:29:52 +0000";
layers = (
{
layerId = "F37970A2-6E00-4E94-80D5-69451598B5C0";
shapes = (
{
closed = 1;
nodes = (
(386,0,l),
(420,180,l),
(509,180,l),
(519,230,l),
(430,230,l),
(519,700,l),
(457,700,l),
(84,226,l),
(75,180,l),
(350,180,l),
(315,0,l)
);
},
{
closed = 1;
nodes = (
(429,586,l),
(360,230,l),
(146,230,l)
);
}
);
userData = {
assembly = "NPUSHB[ ]	/* 46 values pushed */
12 1 2 1 2 1 0 2 2 76 6 5 2 2 3 1 0 4 2 0 104 0 1 1 14 77 0 4 4 15 4 78 11 11 11 13 11 13 17 17 17 18 16 7 7 27 
CALL[ ]	/* CallFunction */";
};
width = 515;
}
);
note = four;
unicode = 52;
},
{
glyphname = five;
lastChange = "2023-01-01 20:29:52 +0000";
layers = (
{
layerId = "F37970A2-6E00-4E94-80D5-69451598B5C0";
shapes = (
{
closed = 1;
nodes = (
(408,-9,o),
(508,82,o),
(535,225,cs),
(560,352,o),
(496,434,o),
(366,434,cs),
(317,434,o),
(259,413,o),
(223,381,c),
(300,640,l),
(566,640,l),
(578,700,l),
(253,700,l),
(145,317,l),
(203,302,l),
(242,352,o),
(305,383,o),
(356,383,cs),
(441,383,o),
(483,321,o),
(464,225,cs),
(443,114,o),
(373,42,o),
(290,42,cs),
(210,42,o),
(161,85,o),
(175,148,c),
(105,148,l),
(84,52,o),
(157,-9,o),
(280,-9,cs)
);
}
);
userData = {
assembly = "NPUSHB[ ]	/* 64 values pushed */
21 1 2 5 16 15 2 0 2 2 76 0 0 2 1 2 0 1 128 0 5 0 2 0 5 2 105 0 4 4 3 95 0 3 3 14 77 0 1 1 6 97 7 1 6 6 21 6 78 0 0 0 29 0 28 34 17 20 36 34 18 8 7 28 
CALL[ ]	/* CallFunction */";
};
width = 558;
}
);
note = five;
unicode = 53;
},
{
glyphname = six;
lastChange = "2023-01-01 20:29:52 +0000";
layers = (
{
layerId = "F37970A2-6E00-4E94-80D5-69451598B5C0";
shapes = (
{
closed = 1;
nodes = (
(422,-9,o),
(530,81,o),
(558,222,cs),
(584,357,o),
(512,446,o),
(392,446,cs),
(318,446,o),
(245,399,o),
(210,326,c),
(215,373,ls),
(248,551,o),
(332,655,o),
(425,655,cs),
(501,655,o),
(547,612,o),
(536,546,c),
(594,546,l),
(614,640,o),
(547,709,o),
(436,709,cs),
(297,709,o),
(186,579,o),
(146,371,cs),
(101,140,o),
(133,-9,o),
(297,-9,cs)
);
},
{
closed = 1;
nodes = (
(456,391,o),
(507,325,o),
(487,222,cs),
(466,115,o),
(388,45,o),
(307,45,cs),
(229,45,o),
(177,112,o),
(198,220,cs),
(218,323,o),
(294,391,o),
(374,391,cs)
);
}
);
userData = {
assembly = "NPUSHB[ ]	/* 55 values pushed */
0 1 2 3 2 1 3 128 0 3 0 6 5 3 6 105 0 2 2 0 97 0 0 0 20 77 0 5 5 4 97 7 1 4 4 21 4 78 0 0 35 33 29 27 0 25 0 24 37 34 18 36 8 7 26 
CALL[ ]	/* CallFunction */";
};
width = 574;
}
);
note = six;
unicode = 54;
},
{
glyphname = seven;
lastChange = "2023-01-01 20:29:52 +0000";
layers = (
{
layerId = "F37970A2-6E00-4E94-80D5-69451598B5C0";
shapes = (
{
closed = 1;
nodes = (
(129,0,l),
(205,0,l),
(583,700,l),
(178,700,l),
(164,629,l),
(480,629,l)
);
}
);
userData = {
assembly = "NPUSHB[ ]	/* 22 values pushed */
0 0 0 1 95 0 1 1 14 77 0 2 2 15 2 78 19 17 16 3 7 25 
CALL[ ]	/* CallFunction */";
};
width = 483;
}
);
note = seven;
unicode = 55;
},
{
glyphname = eight;
lastChange = "2023-01-01 20:29:52 +0000";
layers = (
{
layerId = "F37970A2-6E00-4E94-80D5-69451598B5C0";
shapes = (
{
closed = 1;
nodes = (
(419,-9,o),
(519,66,o),
(540,178,cs),
(555,252,o),
(509,326,o),
(430,368,c),
(510,399,o),
(574,465,o),
(588,534,cs),
(608,640,o),
(547,709,o),
(436,709,cs),
(324,709,o),
(232,640,o),
(212,534,cs),
(197,460,o),
(237,393,o),
(307,359,c),
(212,324,o),
(136,250,o),
(122,178,cs),
(101,66,o),
(172,-9,o),
(296,-9,cs)
);
},
{
closed = 1;
nodes = (
(205,243,o),
(273,305,o),
(362,333,c),
(440,311,o),
(484,249,o),
(470,178,cs),
(454,96,o),
(388,41,o),
(306,41,cs),
(222,41,o),
(176,96,o),
(192,178,cs)
);
},
{
closed = 1;
nodes = (
(296,609,o),
(355,658,o),
(426,658,cs),
(496,658,o),
(532,609,o),
(518,534,cs),
(505,471,o),
(450,416,o),
(377,395,c),
(307,414,o),
(269,469,o),
(282,534,cs)
);
}
);
userData = {
assembly = "NPUSHB[ ]	/* 45 values pushed */
38 32 17 5 4 2 3 1 76 0 3 3 0 97 0 0 0 20 77 0 2 2 1 97 4 1 1 1 21 1 78 0 0 45 43 27 25 0 23 0 22 42 5 7 23 
CALL[ ]	/* CallFunction */";
};
width = 582;
}
);
note = eight;
unicode = 56;
},
{
glyphname = nine;
lastChange = "2023-01-01 20:29:52 +0000";
layers = (
{
layerId = "F37970A2-6E00-4E94-80D5-69451598B5C0";
shapes = (
{
closed = 1;
nodes = (
(411,-9,o),
(520,140,o),
(564,366,cs),
(610,603,o),
(569,709,o),
(409,709,cs),
(284,709,o),
(174,620,o),
(148,486,cs),
(121,347,o),
(192,254,o),
(312,254,cs),
(377,254,o),
(456,293,o),
(493,344,c),
(462,165,o),
(375,45,o),
(284,45,cs),
(212,45,o),
(168,86,o),
(179,148,c),
(113,148,l),
(93,53,o),
(159,-9,o),
(274,-9,cs)
);
},
{
closed = 1;
nodes = (
(239,588,o),
(315,654,o),
(398,654,cs),
(483,654,o),
(538,589,o),
(519,489,cs),
(497,379,o),
(417,308,o),
(332,308,cs),
(249,308,o),
(198,378,o),
(219,486,cs)
);
}
);
userData = {
assembly = "NPUSHB[ ]	/* 61 values pushed */
9 1 2 5 1 76 0 0 2 1 2 0 1 128 0 5 0 2 0 5 2 105 0 6 6 3 97 0 3 3 20 77 0 1 1 4 97 7 1 4 4 21 4 78 0 0 35 33 29 27 0 25 0 24 36 37 34 18 8 7 26 
CALL[ ]	/* CallFunction */";
};
width = 562;
}
);
note = nine;
unicode = 57;
},
{
glyphname = period;
lastChange = "2023-01-01 20:29:52 +0000";
layers = (
{
layerId = "F37970A2-6E00-4E94-80D5-69451598B5C0";
shapes = (
{
closed = 1;
nodes = (
(166,-10,o),
(198,18,o),
(205,50,cs),
(211,81,o),
(189,109,o),
(158,109,cs),
(127,109,o),
(94,81,o),
(88,50,cs),
(81,18,o),
(104,-10,o),
(135,-10,cs)
);
}
);
userData = {
assembly = "MPPEM[ ]	/* MeasurePixelPerEm */
PUSHB[ ]	/* 1 value pushed */
9 
LT[ ]	/* LessThan */
IF[ ]	/* If */
NPUSHB[ ]	/* 12 values pushed */
0 0 0 1 97 2 1 1 1 21 1 78 
ELSE[ ]	/* Else */
NPUSHB[ ]	/* 12 values pushed */
0 0 0 1 97 2 1 1 1 24 1 78 
EIF[ ]	/* EndIf */
NPUSHB[ ]	/* 10 values pushed */
0 0 0 11 0 10 36 3 7 23 
CALL[ ]	/* CallFunction */";
};
width = 285;
}
);
note = period;
unicode = 46;
},
{
glyphname = comma;
lastChange = "2023-01-01 20:39:51 +0000";
layers = (
{
layerId = "F37970A2-6E00-4E94-80D5-69451598B5C0";
shapes = (
{
closed = 1;
nodes = (
(201,2,ls),
(210,14,o),
(220,36,o),
(222,49,cs),
(228,81,o),
(207,109,o),
(178,109,cs),
(147,109,o),
(113,81,o),
(107,49,cs),
(102,24,o),
(114,-4,o),
(133,-10,c),
(45,-148,l),
(80,-158,l)
);
}
);
userData = {
assembly = "NPUSHB[ ]	/* 13 values pushed */
13 1 2 0 73 0 0 0 118 38 1 7 23 
CALL[ ]	/* CallFunction */";
};
width = 285;
}
);
note = comma;
unicode = 44;
},
{
glyphname = colon;
lastChange = "2023-01-01 20:29:52 +0000";
layers = (
{
layerId = "F37970A2-6E00-4E94-80D5-69451598B5C0";
shapes = (
{
closed = 1;
nodes = (
(243,355,o),
(274,382,o),
(280,413,cs),
(286,444,o),
(265,472,o),
(236,472,cs),
(206,472,o),
(174,444,o),
(168,413,cs),
(162,382,o),
(183,355,o),
(213,355,cs)
);
},
{
closed = 1;
nodes = (
(91,18,o),
(112,-10,o),
(142,-10,cs),
(172,-10,o),
(203,18,o),
(209,49,cs),
(216,80,o),
(195,108,o),
(165,108,cs),
(135,108,o),
(104,80,o),
(97,49,cs)
);
}
);
userData = {
assembly = "MPPEM[ ]	/* MeasurePixelPerEm */
PUSHB[ ]	/* 1 value pushed */
9 
LT[ ]	/* LessThan */
IF[ ]	/* If */
NPUSHB[ ]	/* 22 values pushed */
4 1 1 1 0 97 0 0 0 17 77 0 2 2 3 97 0 3 3 21 3 78 
ELSE[ ]	/* Else */
MPPEM[ ]	/* MeasurePixelPerEm */
PUSHB[ ]	/* 1 value pushed */
28 
LT[ ]	/* LessThan */
IF[ ]	/* If */
NPUSHB[ ]	/* 22 values pushed */
4 1 1 1 0 97 0 0 0 17 77 0 2 2 3 97 0 3 3 24 3 78 
ELSE[ ]	/* Else */
NPUSHB[ ]	/* 20 values pushed */
0 0 4 1 1 2 0 1 105 0 2 2 3 97 0 3 3 24 3 78 
EIF[ ]	/* EndIf */
EIF[ ]	/* EndIf */
NPUSHB[ ]	/* 14 values pushed */
0 0 21 19 15 13 0 11 0 10 36 5 7 23 
CALL[ ]	/* CallFunction */";
};
width = 285;
}
);
note = colon;
unicode = 58;
},
{
glyphname = semicolon;
lastChange = "2023-01-01 20:39:57 +0000";
layers = (
{
layerId = "F37970A2-6E00-4E94-80D5-69451598B5C0";
shapes = (
{
closed = 1;
nodes = (
(173,376,o),
(194,349,o),
(226,349,cs),
(258,349,o),
(288,376,o),
(295,411,cs),
(302,445,o),
(282,472,o),
(250,472,cs),
(218,472,o),
(187,445,o),
(180,411,cs)
);
},
{
closed = 1;
nodes = (
(204,-1,ls),
(214,13,o),
(224,33,o),
(226,46,cs),
(233,79,o),
(212,106,o),
(181,106,cs),
(148,106,o),
(117,79,o),
(110,46,cs),
(105,19,o),
(118,-6,o),
(139,-12,c),
(49,-151,l),
(85,-160,l)
);
}
);
userData = {
assembly = "PUSHB[ ]	/* 5 values pushed */
14 1 2 0 73 
MPPEM[ ]	/* MeasurePixelPerEm */
PUSHB[ ]	/* 1 value pushed */
9 
LT[ ]	/* LessThan */
IF[ ]	/* If */
NPUSHB[ ]	/* 21 values pushed */
0 0 2 0 134 0 1 2 2 1 89 0 1 1 2 97 0 2 1 2 81 
ELSE[ ]	/* Else */
MPPEM[ ]	/* MeasurePixelPerEm */
PUSHB[ ]	/* 1 value pushed */
21 
LT[ ]	/* LessThan */
IF[ ]	/* If */
NPUSHB[ ]	/* 16 values pushed */
0 0 2 0 134 0 2 2 1 97 0 1 1 17 2 78 
ELSE[ ]	/* Else */
NPUSHB[ ]	/* 21 values pushed */
0 0 2 0 134 0 1 2 2 1 89 0 1 1 2 97 0 2 1 2 81 
EIF[ ]	/* EndIf */
EIF[ ]	/* EndIf */
PUSHB[ ]	/* 6 values pushed */
36 40 38 3 7 25 
CALL[ ]	/* CallFunction */";
};
width = 285;
}
);
note = semicolon;
unicode = 59;
},
{
glyphname = hyphen;
lastChange = "2023-01-01 20:40:06 +0000";
layers = (
{
layerId = "F37970A2-6E00-4E94-80D5-69451598B5C0";
shapes = (
{
closed = 1;
nodes = (
(407,249,l),
(418,306,l),
(88,306,l),
(77,249,l)
);
}
);
userData = {
assembly = "NPUSHB[ ]	/* 21 values pushed */
0 0 1 1 0 87 0 0 0 1 95 0 1 0 1 79 17 16 2 7 24 
CALL[ ]	/* CallFunction */";
};
width = 414;
}
);
note = hyphen;
unicode = 45;
},
{
glyphname = endash;
lastChange = "2023-01-01 20:29:52 +0000";
layers = (
{
layerId = "F37970A2-6E00-4E94-80D5-69451598B5C0";
shapes = (
{
closed = 1;
nodes = (
(500,238,l),
(513,305,l),
(93,305,l),
(80,238,l)
);
}
);
userData = {
assembly = "NPUSHB[ ]	/* 21 values pushed */
0 0 1 1 0 87 0 0 0 1 95 0 1 0 1 79 17 16 2 7 24 
CALL[ ]	/* CallFunction */";
};
width = 580;
}
);
note = endash;
unicode = 8211;
},
{
glyphname = emdash;
lastChange = "2023-01-01 20:29:52 +0000";
layers = (
{
layerId = "F37970A2-6E00-4E94-80D5-69451598B5C0";
shapes = (
{
closed = 1;
nodes = (
(579,241,l),
(591,305,l),
(12,305,l),
(0,241,l)
);
}
);
userData = {
assembly = "NPUSHB[ ]	/* 21 values pushed */
0 0 1 1 0 87 0 0 0 1 95 0 1 0 1 79 17 16 2 7 24 
CALL[ ]	/* CallFunction */";
};
width = 579;
}
);
note = emdash;
unicode = 8212;
},
{
glyphname = underscore;
lastChange = "2023-01-01 20:29:52 +0000";
layers = (
{
layerId = "F37970A2-6E00-4E94-80D5-69451598B5C0";
shapes = (
{
closed = 1;
nodes = (
(594,-119,l),
(604,-67,l),
(10,-67,l),
(0,-119,l)
);
}
);
userData = {
assembly = "PUSHB[ ]	/* 2 values pushed */
6 100 
WCVTP[ ]	/* WriteCVTInPixels */
NPUSHB[ ]	/* 21 values pushed */
0 0 1 1 0 87 0 0 0 1 95 0 1 0 1 79 17 16 2 7 24 
CALL[ ]	/* CallFunction */
PUSHB[ ]	/* 2 values pushed */
6 0 
WCVTP[ ]	/* WriteCVTInPixels */";
};
width = 594;
}
);
note = underscore;
unicode = 95;
},
{
glyphname = uni0308;
lastChange = "2023-01-01 20:29:52 +0000";
layers = (
{
layerId = "F37970A2-6E00-4E94-80D5-69451598B5C0";
shapes = (
{
closed = 1;
nodes = (
(125,590,o),
(152,614,o),
(157,640,cs),
(162,667,o),
(145,691,o),
(121,691,cs),
(96,691,o),
(69,667,o),
(64,640,cs),
(59,614,o),
(76,590,o),
(101,590,cs)
);
},
{
closed = 1;
nodes = (
(276,614,o),
(294,590,o),
(319,590,cs),
(344,590,o),
(371,614,o),
(376,640,cs),
(381,667,o),
(364,691,o),
(339,691,cs),
(314,691,o),
(286,667,o),
(281,640,cs)
);
}
);
userData = {
assembly = "PUSHB[ ]	/* 2 values pushed */
6 100 
WCVTP[ ]	/* WriteCVTInPixels */
NPUSHB[ ]	/* 34 values pushed */
2 1 0 1 1 0 89 2 1 0 0 1 97 3 4 2 1 0 1 81 0 0 21 19 15 13 0 11 0 10 36 5 7 23 
CALL[ ]	/* CallFunction */
PUSHB[ ]	/* 2 values pushed */
6 0 
WCVTP[ ]	/* WriteCVTInPixels */";
};
width = 420;
}
);
note = uni0308;
unicode = 776;
},
{
glyphname = ellipsis;
lastChange = "2023-01-01 20:29:52 +0000";
layers = (
{
layerId = "F37970A2-6E00-4E94-80D5-69451598B5C0";
shapes = (
{
closed = 1;
nodes = (
(148,-10,o),
(181,19,o),
(187,52,cs),
(193,85,o),
(172,114,o),
(141,114,cs),
(110,114,o),
(77,85,o),
(71,52,cs),
(65,19,o),
(86,-10,o),
(117,-10,cs)
);
},
{
closed = 1;
nodes = (
(148,-10,o),
(181,19,o),
(187,52,cs),
(193,85,o),
(172,114,o),
(141,114,cs),
(110,114,o),
(77,85,o),
(71,52,cs),
(65,19,o),
(86,-10,o),
(117,-10,cs)
);
},
{
closed = 1;
nodes = (
(148,-10,o),
(181,19,o),
(187,52,cs),
(193,85,o),
(172,114,o),
(141,114,cs),
(110,114,o),
(77,85,o),
(71,52,cs),
(65,19,o),
(86,-10,o),
(117,-10,cs)
);
}
);
width = 234;
}
);
unicode = 8230;
},
{
glyphname = exclam;
lastChange = "2023-01-01 20:29:52 +0000";
layers = (
{
layerId = "F37970A2-6E00-4E94-80D5-69451598B5C0";
shapes = (
{
closed = 1;
nodes = (
(169,-10,o),
(202,19,o),
(208,52,cs),
(214,85,o),
(193,114,o),
(162,114,cs),
(131,114,o),
(97,85,o),
(91,52,cs),
(85,19,o),
(107,-10,o),
(138,-10,cs)
);
},
{
closed = 1;
nodes = (
(198,197,l),
(320,700,l),
(233,700,l),
(158,197,l)
);
}
);
width = 285;
}
);
unicode = 33;
},
{
glyphname = exclamdown;
lastChange = "2023-01-01 20:29:52 +0000";
layers = (
{
layerId = "F37970A2-6E00-4E94-80D5-69451598B5C0";
shapes = (
{
closed = 1;
nodes = (
(245,710,o),
(211,681,o),
(205,648,cs),
(199,615,o),
(221,586,o),
(252,586,cs),
(283,586,o),
(316,615,o),
(322,648,cs),
(328,681,o),
(307,710,o),
(276,710,cs)
);
},
{
closed = 1;
nodes = (
(95,0,l),
(182,0,l),
(256,503,l),
(216,503,l)
);
}
);
width = 285;
}
);
unicode = 161;
},
{
glyphname = question;
lastChange = "2023-01-01 20:41:09 +0000";
layers = (
{
layerId = "F37970A2-6E00-4E94-80D5-69451598B5C0";
shapes = (
{
closed = 1;
nodes = (
(286,215,l),
(319,338,l),
(418,352,o),
(504,432,o),
(522,527,cs),
(544,638,o),
(484,710,o),
(370,710,cs),
(258,710,o),
(171,643,o),
(152,540,c),
(223,540,l),
(236,611,o),
(291,659,o),
(360,659,cs),
(431,659,o),
(467,605,o),
(451,527,cs),
(436,448,o),
(362,392,o),
(269,388,c),
(248,215,l)
);
},
{
closed = 1;
nodes = (
(256,-10,o),
(288,18,o),
(294,49,cs),
(300,80,o),
(279,108,o),
(248,108,cs),
(217,108,o),
(184,80,o),
(178,49,cs),
(172,18,o),
(194,-10,o),
(225,-10,cs)
);
}
);
width = 500;
}
);
unicode = 63;
},
{
glyphname = questiondown;
lastChange = "2023-01-01 20:29:52 +0000";
layers = (
{
layerId = "F37970A2-6E00-4E94-80D5-69451598B5C0";
shapes = (
{
closed = 1;
nodes = (
(337,486,l),
(305,363,l),
(206,349,o),
(119,269,o),
(101,174,cs),
(79,63,o),
(140,-10,o),
(254,-10,cs),
(366,-10,o),
(453,58,o),
(472,161,c),
(401,161,l),
(387,90,o),
(333,42,o),
(264,42,cs),
(193,42,o),
(156,95,o),
(172,174,cs),
(187,253,o),
(261,309,o),
(354,313,c),
(376,486,l)
);
},
{
closed = 1;
nodes = (
(368,710,o),
(336,682,o),
(329,651,cs),
(323,620,o),
(345,592,o),
(375,592,cs),
(406,592,o),
(439,620,o),
(445,651,cs),
(452,682,o),
(429,710,o),
(398,710,cs)
);
}
);
width = 500;
}
);
unicode = 191;
},
{
glyphname = periodcentered;
lastChange = "2023-01-01 20:29:52 +0000";
layers = (
{
layerId = "F37970A2-6E00-4E94-80D5-69451598B5C0";
shapes = (
{
closed = 1;
nodes = (
(202,243,o),
(234,271,o),
(240,302,cs),
(247,333,o),
(225,361,o),
(194,361,cs),
(163,361,o),
(131,333,o),
(124,302,cs),
(118,271,o),
(140,243,o),
(171,243,cs)
);
}
);
width = 360;
}
);
unicode = 183;
},
{
glyphname = bullet;
lastChange = "2023-01-01 20:29:52 +0000";
layers = (
{
layerId = "F37970A2-6E00-4E94-80D5-69451598B5C0";
shapes = (
{
closed = 1;
nodes = (
(341,106,o),
(403,159,o),
(415,218,cs),
(426,278,o),
(385,331,o),
(327,331,cs),
(268,331,o),
(204,278,o),
(193,218,cs),
(181,159,o),
(224,106,o),
(283,106,cs)
);
}
);
width = 590;
}
);
unicode = 8226;
},
{
glyphname = asterisk;
lastChange = "2023-01-01 20:41:15 +0000";
layers = (
{
layerId = "F37970A2-6E00-4E94-80D5-69451598B5C0";
shapes = (
{
closed = 1;
nodes = (
(248,517,l),
(307,391,l),
(349,418,l),
(279,540,l),
(412,570,l),
(407,614,l),
(275,570,l),
(302,710,l),
(262,710,l),
(238,570,l),
(124,613,l),
(101,570,l),
(224,540,l),
(106,418,l),
(137,391,l)
);
}
);
width = 390;
}
);
unicode = 42;
},
{
glyphname = numbersign;
lastChange = "2023-01-01 20:29:52 +0000";
layers = (
{
layerId = "F37970A2-6E00-4E94-80D5-69451598B5C0";
shapes = (
{
closed = 1;
nodes = (
(307,0,l),
(380,215,l),
(480,215,l),
(499,267,l),
(399,267,l),
(461,451,l),
(560,451,l),
(578,504,l),
(479,504,l),
(542,700,l),
(494,700,l),
(429,504,l),
(283,504,l),
(348,700,l),
(300,700,l),
(236,504,l),
(146,504,l),
(127,451,l),
(221,451,l),
(158,267,l),
(67,267,l),
(48,215,l),
(140,215,l),
(66,0,l),
(113,0,l),
(185,215,l),
(332,215,l),
(260,0,l)
);
},
{
closed = 1;
nodes = (
(268,451,l),
(414,451,l),
(351,267,l),
(205,267,l)
);
}
);
width = 500;
}
);
unicode = 35;
},
{
glyphname = slash;
lastChange = "2023-01-01 20:40:39 +0000";
layers = (
{
layerId = "F37970A2-6E00-4E94-80D5-69451598B5C0";
shapes = (
{
closed = 1;
nodes = (
(69,-170,l),
(517,710,l),
(461,710,l),
(13,-170,l)
);
}
);
width = 379;
}
);
unicode = 47;
},
{
glyphname = backslash;
lastChange = "2023-01-01 20:29:52 +0000";
layers = (
{
layerId = "F37970A2-6E00-4E94-80D5-69451598B5C0";
shapes = (
{
closed = 1;
nodes = (
(250,710,l),
(194,710,l),
(300,-170,l),
(355,-170,l)
);
}
);
width = 378;
}
);
unicode = 92;
},
{
glyphname = parenleft;
lastChange = "2023-01-01 20:40:49 +0000";
layers = (
{
layerId = "F37970A2-6E00-4E94-80D5-69451598B5C0";
shapes = (
{
closed = 1;
nodes = (
(205,-141,l),
(154,-10,o),
(141,144,o),
(171,295,cs),
(199,442,o),
(272,587,o),
(370,699,c),
(309,699,l),
(211,578,o),
(144,439,o),
(116,295,cs),
(85,139,o),
(96,-8,o),
(144,-141,c)
);
}
);
width = 237;
}
);
unicode = 40;
},
{
glyphname = parenright;
lastChange = "2023-01-01 20:40:56 +0000";
layers = (
{
layerId = "F37970A2-6E00-4E94-80D5-69451598B5C0";
shapes = (
{
closed = 1;
nodes = (
(137,-20,o),
(205,129,o),
(236,288,cs),
(264,428,o),
(251,571,o),
(202,699,c),
(142,699,l),
(193,566,o),
(207,423,o),
(180,288,cs),
(149,126,o),
(77,-24,o),
(-26,-141,c),
(37,-141,l)
);
}
);
width = 240;
}
);
unicode = 41;
},
{
glyphname = braceleft;
lastChange = "2023-01-01 20:29:52 +0000";
layers = (
{
layerId = "F37970A2-6E00-4E94-80D5-69451598B5C0";
shapes = (
{
closed = 1;
nodes = (
(297,-170,l),
(305,-130,l),
(260,-130,ls),
(231,-130,o),
(213,-90,o),
(221,-45,cs),
(225,-27,o),
(238,25,o),
(244,58,cs),
(256,112,o),
(266,158,o),
(265,156,cs),
(274,202,o),
(267,264,o),
(249,289,c),
(279,312,o),
(316,391,o),
(329,456,cs),
(363,631,ls),
(371,672,o),
(405,709,o),
(435,709,cs),
(478,709,l),
(486,750,l),
(415,750,ls),
(370,750,o),
(318,694,o),
(306,631,cs),
(296,580,o),
(279,501,o),
(271,456,cs),
(256,381,o),
(206,314,o),
(164,314,cs),
(134,314,l),
(125,266,l),
(155,266,ls),
(195,266,o),
(221,214,o),
(209,156,cs),
(203,122,o),
(194,81,o),
(191,69,cs),
(185,38,o),
(174,-15,o),
(168,-45,cs),
(155,-111,o),
(181,-170,o),
(223,-170,cs)
);
}
);
width = 307;
}
);
unicode = 123;
},
{
glyphname = braceright;
lastChange = "2023-01-01 20:29:52 +0000";
layers = (
{
layerId = "F37970A2-6E00-4E94-80D5-69451598B5C0";
shapes = (
{
closed = 1;
nodes = (
(84,-170,ls),
(126,-170,o),
(175,-111,o),
(188,-45,cs),
(194,-15,o),
(203,38,o),
(209,69,cs),
(212,86,o),
(220,127,o),
(225,156,cs),
(237,214,o),
(282,266,o),
(322,266,cs),
(352,266,l),
(361,314,l),
(331,314,ls),
(290,314,o),
(266,381,o),
(281,456,cs),
(289,501,o),
(304,580,o),
(314,631,cs),
(326,694,o),
(296,750,o),
(251,750,cs),
(179,750,l),
(171,709,l),
(215,709,ls),
(245,709,o),
(264,672,o),
(256,631,cs),
(222,456,ls),
(209,392,o),
(216,313,o),
(236,289,c),
(209,265,o),
(177,202,o),
(168,156,cs),
(166,144,o),
(158,98,o),
(151,58,cs),
(145,25,o),
(139,-27,o),
(135,-45,cs),
(127,-90,o),
(93,-130,o),
(63,-130,cs),
(18,-130,l),
(10,-170,l)
);
}
);
width = 307;
}
);
unicode = 125;
},
{
glyphname = bracketleft;
lastChange = "2023-01-01 20:29:52 +0000";
layers = (
{
layerId = "F37970A2-6E00-4E94-80D5-69451598B5C0";
shapes = (
{
closed = 1;
nodes = (
(267,-155,l),
(170,-126,l),
(331,700,l),
(436,716,l),
(445,761,l),
(286,761,l),
(99,-198,l),
(258,-200,l)
);
}
);
width = 327;
}
);
unicode = 91;
},
{
glyphname = bracketright;
lastChange = "2023-01-01 20:29:52 +0000";
layers = (
{
layerId = "F37970A2-6E00-4E94-80D5-69451598B5C0";
shapes = (
{
closed = 1;
nodes = (
(228,-200,l),
(415,761,l),
(256,761,l),
(247,716,l),
(346,700,l),
(185,-128,l),
(78,-157,l),
(69,-202,l)
);
}
);
width = 327;
}
);
unicode = 93;
},
{
glyphname = quotesinglbase;
lastChange = "2023-01-01 20:29:52 +0000";
layers = (
{
layerId = "F37970A2-6E00-4E94-80D5-69451598B5C0";
shapes = (
{
closed = 1;
nodes = (
(191,3,ls),
(202,18,o),
(210,37,o),
(212,50,cs),
(219,83,o),
(199,110,o),
(168,110,cs),
(135,110,o),
(104,83,o),
(97,50,cs),
(92,22,o),
(101,-2,o),
(123,-9,c),
(35,-147,l),
(70,-157,l)
);
}
);
width = 215;
}
);
unicode = 8218;
},
{
glyphname = quotedblbase;
lastChange = "2023-01-01 20:29:52 +0000";
layers = (
{
layerId = "F37970A2-6E00-4E94-80D5-69451598B5C0";
shapes = (
{
closed = 1;
nodes = (
(217,3,ls),
(228,17,o),
(236,37,o),
(238,50,cs),
(245,83,o),
(225,110,o),
(193,110,cs),
(160,110,o),
(130,83,o),
(123,50,cs),
(118,22,o),
(126,-2,o),
(149,-9,c),
(61,-147,l),
(96,-157,l)
);
},
{
closed = 1;
nodes = (
(388,3,ls),
(399,18,o),
(408,37,o),
(410,50,cs),
(417,83,o),
(396,110,o),
(365,110,cs),
(332,110,o),
(301,83,o),
(294,50,cs),
(289,22,o),
(298,-2,o),
(321,-9,c),
(233,-147,l),
(268,-157,l)
);
}
);
width = 430;
}
);
unicode = 8222;
},
{
glyphname = quotedblleft;
lastChange = "2023-01-01 20:29:52 +0000";
layers = (
{
layerId = "F37970A2-6E00-4E94-80D5-69451598B5C0";
shapes = (
{
closed = 1;
nodes = (
(97,547,ls),
(86,532,o),
(78,513,o),
(76,500,cs),
(69,466,o),
(89,440,o),
(120,440,cs),
(153,440,o),
(184,466,o),
(191,500,cs),
(196,527,o),
(187,552,o),
(165,558,c),
(253,696,l),
(218,706,l)
);
},
{
closed = 1;
nodes = (
(275,546,ls),
(264,531,o),
(256,512,o),
(254,499,cs),
(247,465,o),
(267,439,o),
(298,439,cs),
(332,439,o),
(362,466,o),
(369,499,cs),
(374,526,o),
(365,551,o),
(343,557,c),
(431,696,l),
(396,706,l)
);
}
);
width = 430;
}
);
unicode = 8220;
},
{
glyphname = quotedblright;
lastChange = "2023-01-01 20:29:52 +0000";
layers = (
{
layerId = "F37970A2-6E00-4E94-80D5-69451598B5C0";
shapes = (
{
closed = 1;
nodes = (
(210,600,ls),
(221,614,o),
(229,634,o),
(231,647,cs),
(238,680,o),
(218,707,o),
(186,707,cs),
(153,707,o),
(123,680,o),
(116,647,cs),
(111,619,o),
(119,595,o),
(142,589,c),
(54,450,l),
(89,440,l)
);
},
{
closed = 1;
nodes = (
(401,600,ls),
(412,615,o),
(421,634,o),
(423,647,cs),
(430,681,o),
(409,707,o),
(378,707,cs),
(345,707,o),
(314,681,o),
(307,647,cs),
(302,620,o),
(311,595,o),
(334,589,c),
(246,451,l),
(281,441,l)
);
}
);
width = 430;
}
);
unicode = 8221;
},
{
glyphname = quoteleft;
lastChange = "2023-01-01 20:29:52 +0000";
layers = (
{
layerId = "F37970A2-6E00-4E94-80D5-69451598B5C0";
shapes = (
{
closed = 1;
nodes = (
(75,547,ls),
(64,532,o),
(56,513,o),
(54,500,cs),
(47,466,o),
(67,440,o),
(99,440,cs),
(132,440,o),
(162,466,o),
(169,500,cs),
(174,527,o),
(166,552,o),
(143,558,c),
(231,696,l),
(196,706,l)
);
}
);
width = 215;
}
);
unicode = 8216;
},
{
glyphname = quoteright;
lastChange = "2023-01-01 20:29:52 +0000";
layers = (
{
layerId = "F37970A2-6E00-4E94-80D5-69451598B5C0";
shapes = (
{
closed = 1;
nodes = (
(198,600,ls),
(209,615,o),
(217,634,o),
(219,647,cs),
(226,680,o),
(206,707,o),
(175,707,cs),
(142,707,o),
(111,680,o),
(104,647,cs),
(99,619,o),
(108,595,o),
(130,589,c),
(42,450,l),
(77,440,l)
);
}
);
width = 215;
}
);
unicode = 8217;
},
{
glyphname = guillemetleft;
lastChange = "2023-01-01 20:29:52 +0000";
layers = (
{
layerId = "F37970A2-6E00-4E94-80D5-69451598B5C0";
shapes = (
{
closed = 1;
nodes = (
(532,104,l),
(439,273,l),
(597,441,l),
(576,482,l),
(345,273,l),
(495,63,l)
);
},
{
closed = 1;
nodes = (
(278,104,l),
(185,273,l),
(343,441,l),
(322,482,l),
(91,273,l),
(241,63,l)
);
}
);
width = 574;
}
);
unicode = 171;
},
{
glyphname = guillemetright;
lastChange = "2023-01-01 20:29:52 +0000";
layers = (
{
layerId = "F37970A2-6E00-4E94-80D5-69451598B5C0";
shapes = (
{
closed = 1;
nodes = (
(309,273,l),
(159,481,l),
(123,441,l),
(215,273,l),
(58,104,l),
(78,64,l)
);
},
{
closed = 1;
nodes = (
(563,273,l),
(413,481,l),
(377,441,l),
(469,273,l),
(312,104,l),
(332,64,l)
);
}
);
width = 572;
}
);
unicode = 187;
},
{
glyphname = guilsinglleft;
lastChange = "2023-01-01 20:29:52 +0000";
layers = (
{
layerId = "F37970A2-6E00-4E94-80D5-69451598B5C0";
shapes = (
{
closed = 1;
nodes = (
(278,104,l),
(185,273,l),
(343,441,l),
(322,482,l),
(91,273,l),
(241,63,l)
);
}
);
width = 320;
}
);
unicode = 8249;
},
{
glyphname = guilsinglright;
lastChange = "2023-01-01 20:29:52 +0000";
layers = (
{
layerId = "F37970A2-6E00-4E94-80D5-69451598B5C0";
shapes = (
{
closed = 1;
nodes = (
(311,273,l),
(160,482,l),
(123,441,l),
(217,273,l),
(58,104,l),
(79,63,l)
);
}
);
width = 320;
}
);
unicode = 8250;
},
{
glyphname = quotedbl;
lastChange = "2023-01-01 20:29:52 +0000";
layers = (
{
layerId = "F37970A2-6E00-4E94-80D5-69451598B5C0";
shapes = (
{
closed = 1;
nodes = (
(313,483,l),
(374,700,l),
(293,700,l),
(269,483,l)
);
},
{
closed = 1;
nodes = (
(158,483,l),
(219,700,l),
(138,700,l),
(114,483,l)
);
}
);
width = 430;
}
);
unicode = 34;
},
{
glyphname = quotesingle;
lastChange = "2023-01-01 20:29:52 +0000";
layers = (
{
layerId = "F37970A2-6E00-4E94-80D5-69451598B5C0";
shapes = (
{
closed = 1;
nodes = (
(133,483,l),
(195,700,l),
(112,700,l),
(90,483,l)
);
}
);
width = 215;
}
);
unicode = 39;
},
{
glyphname = at;
lastChange = "2023-01-01 20:41:25 +0000";
layers = (
{
layerId = "F37970A2-6E00-4E94-80D5-69451598B5C0";
shapes = (
{
closed = 1;
nodes = (
(499,-195,o),
(589,-171,o),
(667,-131,c),
(639,-100,l),
(579,-131,o),
(503,-150,o),
(443,-150,cs),
(234,-150,o),
(121,24,o),
(168,269,cs),
(213,500,o),
(395,664,o),
(607,664,cs),
(803,664,o),
(913,507,o),
(870,282,cs),
(840,129,o),
(763,63,o),
(696,63,cs),
(668,63,o),
(655,85,o),
(661,114,cs),
(732,477,l),
(676,477,l),
(649,431,l),
(626,466,o),
(586,487,o),
(542,487,cs),
(426,487,o),
(333,394,o),
(304,240,cs),
(278,106,o),
(329,20,o),
(437,20,cs),
(487,20,o),
(542,46,o),
(585,91,c),
(581,49,o),
(621,19,o),
(683,19,cs),
(785,19,o),
(894,103,o),
(929,282,cs),
(978,534,o),
(844,710,o),
(616,710,cs),
(372,710,o),
(159,527,o),
(109,269,cs),
(56,-3,o),
(194,-195,o),
(434,-195,cs)
);
},
{
closed = 1;
nodes = (
(401,358,o),
(463,433,o),
(539,433,cs),
(581,433,o),
(619,407,o),
(635,366,c),
(594,157,l),
(552,106,o),
(496,74,o),
(454,74,cs),
(386,74,o),
(359,140,o),
(379,240,cs)
);
}
);
width = 917;
}
);
unicode = 64;
},
{
glyphname = ampersand;
lastChange = "2023-01-01 20:29:52 +0000";
layers = (
{
layerId = "F37970A2-6E00-4E94-80D5-69451598B5C0";
shapes = (
{
closed = 1;
nodes = (
(604,68,o),
(564,101,o),
(532,132,c),
(603,220,o),
(660,352,o),
(685,496,c),
(629,496,l),
(603,361,o),
(553,242,o),
(495,166,c),
(424,236,o),
(362,299,o),
(323,355,c),
(422,410,o),
(528,470,o),
(547,565,cs),
(564,652,o),
(506,708,o),
(402,708,cs),
(296,708,o),
(215,648,o),
(197,556,cs),
(185,494,o),
(201,430,o),
(235,367,c),
(164,322,o),
(103,265,o),
(89,190,cs),
(65,69,o),
(135,-9,o),
(266,-9,cs),
(345,-9,o),
(425,26,o),
(487,87,c),
(519,56,o),
(560,22,o),
(600,-10,c),
(644,34,l)
);
},
{
closed = 1;
nodes = (
(170,245,o),
(210,289,o),
(263,323,c),
(301,270,o),
(369,202,o),
(450,120,c),
(402,70,o),
(339,41,o),
(276,41,cs),
(185,41,o),
(141,100,o),
(159,190,cs)
);
},
{
closed = 1;
nodes = (
(279,621,o),
(327,663,o),
(393,663,cs),
(457,663,o),
(488,624,o),
(477,565,cs),
(464,497,o),
(382,451,o),
(294,402,c),
(266,455,o),
(256,507,o),
(266,556,cs)
);
}
);
width = 685;
}
);
unicode = 38;
},
{
glyphname = section;
lastChange = "2023-01-01 20:40:12 +0000";
layers = (
{
layerId = "F37970A2-6E00-4E94-80D5-69451598B5C0";
shapes = (
{
closed = 1;
nodes = (
(97,194,o),
(173,111,o),
(276,93,cs),
(337,84,o),
(375,47,o),
(366,4,cs),
(354,-59,o),
(299,-103,o),
(233,-103,cs),
(174,-103,o),
(136,-62,o),
(139,-3,c),
(73,-3,l),
(70,-95,o),
(131,-158,o),
(222,-158,cs),
(326,-158,o),
(410,-89,o),
(430,10,cs),
(440,63,o),
(416,110,o),
(371,126,c),
(435,152,o),
(488,222,o),
(503,299,cs),
(524,409,o),
(455,486,o),
(354,504,cs),
(291,515,o),
(249,553,o),
(259,602,cs),
(271,664,o),
(324,707,o),
(390,707,cs),
(446,707,o),
(484,666,o),
(482,607,c),
(547,607,l),
(551,699,o),
(491,762,o),
(401,762,cs),
(298,762,o),
(215,695,o),
(196,597,cs),
(185,540,o),
(207,490,o),
(251,473,c),
(187,447,o),
(133,378,o),
(118,302,cs)
);
},
{
closed = 1;
nodes = (
(203,381,o),
(265,441,o),
(338,441,cs),
(412,441,o),
(453,383,o),
(438,303,cs),
(421,217,o),
(357,155,o),
(283,155,cs),
(210,155,o),
(170,214,o),
(186,296,cs)
);
}
);
width = 485;
}
);
unicode = 167;
},
{
glyphname = copyright;
lastChange = "2023-01-01 20:29:52 +0000";
layers = (
{
layerId = "F37970A2-6E00-4E94-80D5-69451598B5C0";
shapes = (
{
closed = 1;
nodes = (
(664,-50,o),
(877,131,o),
(920,350,cs),
(963,570,o),
(820,750,o),
(603,750,cs),
(385,750,o),
(171,570,o),
(128,350,cs),
(85,131,o),
(229,-50,o),
(447,-50,cs)
);
},
{
closed = 1;
nodes = (
(204,550,o),
(396,713,o),
(595,713,cs),
(794,713,o),
(923,550,o),
(884,350,cs),
(845,150,o),
(653,-12,o),
(454,-12,cs),
(255,-12,o),
(126,150,o),
(165,350,cs)
);
},
{
closed = 1;
nodes = (
(577,104,o),
(655,160,o),
(671,236,c),
(598,236,l),
(589,197,o),
(549,169,o),
(490,169,cs),
(427,169,o),
(388,244,o),
(409,353,cs),
(429,455,o),
(496,525,o),
(559,525,cs),
(619,525,o),
(646,494,o),
(639,449,c),
(712,449,l),
(726,528,o),
(671,589,o),
(571,589,cs),
(461,589,o),
(354,490,o),
(327,353,cs),
(299,208,o),
(367,104,o),
(477,104,cs)
);
}
);
width = 892;
}
);
unicode = 169;
},
{
glyphname = registered;
lastChange = "2023-01-01 20:29:52 +0000";
layers = (
{
layerId = "F37970A2-6E00-4E94-80D5-69451598B5C0";
shapes = (
{
closed = 1;
nodes = (
(383,263,o),
(501,362,o),
(527,497,cs),
(554,632,o),
(474,732,o),
(340,732,cs),
(208,732,o),
(92,632,o),
(65,497,cs),
(39,362,o),
(117,263,o),
(249,263,cs)
);
},
{
closed = 1;
nodes = (
(115,618,o),
(218,705,o),
(335,705,cs),
(454,705,o),
(523,618,o),
(499,497,cs),
(476,377,o),
(373,290,o),
(254,290,cs),
(137,290,o),
(68,377,o),
(91,497,cs)
);
},
{
closed = 1;
nodes = (
(225,364,l),
(247,480,l),
(281,480,ls),
(290,480,o),
(295,480,o),
(299,481,c),
(343,364,l),
(384,364,l),
(337,487,l),
(375,500,o),
(400,523,o),
(405,553,cs),
(415,600,o),
(384,627,o),
(320,627,cs),
(238,627,l),
(187,364,l)
);
},
{
closed = 1;
nodes = (
(270,599,l),
(315,599,ls),
(357,599,o),
(373,581,o),
(367,553,cs),
(362,525,o),
(339,508,o),
(297,508,cs),
(253,508,l)
);
}
);
width = 502;
}
);
unicode = 174;
},
{
glyphname = trademark;
lastChange = "2023-01-01 20:29:52 +0000";
layers = (
{
layerId = "F37970A2-6E00-4E94-80D5-69451598B5C0";
shapes = (
{
closed = 1;
nodes = (
(144,407,l),
(194,663,l),
(276,663,l),
(284,704,l),
(78,704,l),
(70,663,l),
(151,663,l),
(101,407,l)
);
},
{
closed = 1;
nodes = (
(318,407,l),
(365,629,l),
(395,407,l),
(426,407,l),
(548,626,l),
(510,407,l),
(552,407,l),
(599,704,l),
(552,704,l),
(424,462,l),
(399,704,l),
(348,704,l),
(280,407,l)
);
}
);
width = 572;
}
);
unicode = 8482;
},
{
glyphname = degree;
lastChange = "2023-01-01 20:29:52 +0000";
layers = (
{
layerId = "F37970A2-6E00-4E94-80D5-69451598B5C0";
shapes = (
{
closed = 1;
nodes = (
(239,429,o),
(317,495,o),
(331,570,cs),
(346,644,o),
(294,710,o),
(222,710,cs),
(149,710,o),
(72,644,o),
(57,570,cs),
(43,495,o),
(95,429,o),
(167,429,cs)
);
},
{
closed = 1;
nodes = (
(112,620,o),
(164,665,o),
(213,665,cs),
(262,665,o),
(297,620,o),
(287,570,cs),
(278,520,o),
(225,476,o),
(176,476,cs),
(128,476,o),
(93,520,o),
(102,570,cs)
);
}
);
width = 334;
}
);
unicode = 176;
},
{
glyphname = bar;
lastChange = "2023-01-01 20:29:52 +0000";
layers = (
{
layerId = "F37970A2-6E00-4E94-80D5-69451598B5C0";
shapes = (
{
closed = 1;
nodes = (
(96,-168,l),
(268,715,l),
(232,715,l),
(60,-168,l)
);
}
);
width = 156;
}
);
unicode = 124;
},
{
glyphname = euro;
lastChange = "2023-01-01 20:29:52 +0000";
layers = (
{
layerId = "F37970A2-6E00-4E94-80D5-69451598B5C0";
shapes = (
{
closed = 1;
nodes = (
(434,374,l),
(444,425,l),
(116,425,l),
(106,374,l)
);
},
{
closed = 1;
nodes = (
(413,269,l),
(423,321,l),
(95,321,l),
(85,269,l)
);
},
{
closed = 1;
nodes = (
(462,-15,o),
(572,55,o),
(610,149,c),
(539,149,l),
(509,82,o),
(439,38,o),
(365,38,cs),
(249,38,o),
(196,167,o),
(235,365,cs),
(270,545,o),
(371,663,o),
(487,663,cs),
(561,663,o),
(608,613,o),
(609,533,c),
(677,533,l),
(679,640,o),
(606,715,o),
(497,715,cs),
(340,715,o),
(210,576,o),
(169,365,cs),
(125,137,o),
(198,-15,o),
(355,-15,cs)
);
}
);
width = 608;
}
);
unicode = 8364;
},
{
glyphname = plus;
lastChange = "2023-01-01 20:29:52 +0000";
layers = (
{
layerId = "F37970A2-6E00-4E94-80D5-69451598B5C0";
shapes = (
{
closed = 1;
nodes = (
(261,253,l),
(222,51,l),
(279,51,l),
(318,253,l),
(516,253,l),
(527,310,l),
(329,310,l),
(369,514,l),
(312,514,l),
(272,310,l),
(72,310,l),
(61,253,l)
);
}
);
width = 500;
}
);
unicode = 43;
},
{
glyphname = minus;
lastChange = "2023-01-01 20:29:52 +0000";
layers = (
{
layerId = "F37970A2-6E00-4E94-80D5-69451598B5C0";
shapes = (
{
closed = 1;
nodes = (
(477,251,l),
(488,308,l),
(33,308,l),
(22,251,l)
);
}
);
width = 500;
}
);
unicode = 8722;
},
{
glyphname = multiply;
lastChange = "2023-01-01 20:29:52 +0000";
layers = (
{
layerId = "F37970A2-6E00-4E94-80D5-69451598B5C0";
shapes = (
{
closed = 1;
nodes = (
(277,231,l),
(389,92,l),
(444,136,l),
(332,275,l),
(498,416,l),
(463,461,l),
(295,323,l),
(182,461,l),
(129,417,l),
(242,276,l),
(75,136,l),
(111,92,l)
);
}
);
width = 500;
}
);
unicode = 215;
},
{
glyphname = equal;
lastChange = "2023-01-01 20:41:03 +0000";
layers = (
{
layerId = "F37970A2-6E00-4E94-80D5-69451598B5C0";
shapes = (
{
closed = 1;
nodes = (
(521,318,l),
(533,378,l),
(78,378,l),
(66,318,l)
);
},
{
closed = 1;
nodes = (
(490,158,l),
(502,219,l),
(47,219,l),
(35,158,l)
);
}
);
width = 500;
}
);
unicode = 61;
},
{
glyphname = greater;
lastChange = "2023-01-01 20:29:52 +0000";
layers = (
{
layerId = "F37970A2-6E00-4E94-80D5-69451598B5C0";
shapes = (
{
closed = 1;
nodes = (
(485,276,l),
(157,520,l),
(145,461,l),
(384,276,l),
(73,91,l),
(62,32,l)
);
}
);
width = 500;
}
);
unicode = 62;
},
{
glyphname = less;
lastChange = "2023-01-01 20:29:52 +0000";
layers = (
{
layerId = "F37970A2-6E00-4E94-80D5-69451598B5C0";
shapes = (
{
closed = 1;
nodes = (
(449,91,l),
(211,276,l),
(521,461,l),
(533,520,l),
(109,276,l),
(438,32,l)
);
}
);
width = 500;
}
);
unicode = 60;
},
{
glyphname = percent;
lastChange = "2023-01-01 20:40:19 +0000";
layers = (
{
layerId = "F37970A2-6E00-4E94-80D5-69451598B5C0";
shapes = (
{
closed = 1;
nodes = (
(159,-3,l),
(691,704,l),
(627,704,l),
(95,-3,l)
);
},
{
closed = 1;
nodes = (
(116,461,o),
(157,396,o),
(231,396,cs),
(304,396,o),
(370,461,o),
(389,560,cs),
(407,650,o),
(365,710,o),
(292,710,cs),
(218,710,o),
(153,650,o),
(135,560,cs)
);
},
{
closed = 1;
nodes = (
(205,627,o),
(240,665,o),
(283,665,cs),
(326,665,o),
(345,627,o),
(332,560,cs),
(317,483,o),
(283,443,o),
(240,443,cs),
(197,443,o),
(177,483,o),
(192,560,cs)
);
},
{
closed = 1;
nodes = (
(388,57,o),
(428,-8,o),
(502,-8,cs),
(575,-8,o),
(642,57,o),
(661,155,cs),
(678,246,o),
(636,306,o),
(563,306,cs),
(489,306,o),
(424,246,o),
(407,155,cs)
);
},
{
closed = 1;
nodes = (
(477,223,o),
(512,263,o),
(555,263,cs),
(598,263,o),
(617,223,o),
(604,155,cs),
(589,79,o),
(554,39,o),
(511,39,cs),
(468,39,o),
(449,79,o),
(464,155,cs)
);
}
